<?xml version="1.0" encoding="UTF-8"?>
<svg version="1.1" xmlns="http://www.w3.org/2000/svg" width="138" height="159">
<path d="M0 0 C45.54 0 91.08 0 138 0 C138 52.47 138 104.94 138 159 C92.46 159 46.92 159 0 159 C0 106.53 0 54.06 0 0 Z " fill="#183860" transform="translate(0,0)"/>
<path d="M0 0 C45.54 0 91.08 0 138 0 C138 52.47 138 104.94 138 159 C115.89 159 93.78 159 71 159 C73.8950301 156.82872743 76.76219872 154.85756043 79.8215332 152.94335938 C104.97461262 137.17118341 121.26478369 116.31319966 130.875 88.375 C131.30474121 87.14209229 131.30474121 87.14209229 131.74316406 85.88427734 C135.78345204 73.50816056 136.289637 61.03000793 136.125 48.125 C136.11493026 46.74349622 136.1058116 45.36198516 136.09765625 43.98046875 C136.0743904 40.65345268 136.04170564 37.32682715 136 34 C134.71222656 33.78859375 133.42445313 33.5771875 132.09765625 33.359375 C123.99410903 31.73496075 116.24879113 28.9024951 108.4375 26.25 C106.89275508 25.73124359 105.347834 25.21301146 103.80273438 24.6953125 C102.26293947 24.17732513 100.72322574 23.6590964 99.18359375 23.140625 C98.04451065 22.75843811 98.04451065 22.75843811 96.88241577 22.36853027 C93.00698085 21.05802807 89.16209308 19.6965004 85.34033203 18.23632812 C84.20785789 17.81163239 84.20785789 17.81163239 83.05250549 17.37835693 C81.63257005 16.84287784 80.21771097 16.29363474 78.80967712 15.7276001 C70.74510784 12.71046529 63.87108644 15.12752269 56.1015625 17.73046875 C55.26773041 18.00337234 54.43389832 18.27627594 53.57479858 18.55744934 C50.92256698 19.4273191 48.27379612 20.30723177 45.625 21.1875 C43.88693611 21.75912486 42.14865621 22.33009337 40.41015625 22.90039062 C33.53204146 25.16100771 26.65808308 27.43240544 19.80371094 29.76416016 C18.97777435 30.04375076 18.15183777 30.32334137 17.3008728 30.61140442 C15.73737994 31.14139678 14.17514823 31.67512919 12.6144104 32.21318054 C9.61971337 33.22675997 7.18506964 34 4 34 C3.92447253 38.28260115 3.87076698 42.56482478 3.83520508 46.84790039 C3.82034299 48.29751354 3.80004733 49.74708365 3.77368164 51.1965332 C3.53563779 64.64367719 5.29124092 77.13789476 9.6875 89.9375 C9.94096191 90.68201416 10.19442383 91.42652832 10.45556641 92.19360352 C20.28527925 120.04642213 40.1873989 143.15598589 66.4609375 156.796875 C67.29882812 157.19390625 68.13671875 157.5909375 69 158 C69 158.33 69 158.66 69 159 C46.23 159 23.46 159 0 159 C0 106.53 0 54.06 0 0 Z " fill="#FCFDFD" transform="translate(0,0)"/>
<path d="M0 0 C0.87849609 0.25885986 1.75699219 0.51771973 2.66210938 0.78442383 C3.54705078 1.08888428 4.43199219 1.39334473 5.34375 1.70703125 C6.33584473 2.04436279 7.32793945 2.38169434 8.35009766 2.72924805 C9.38956543 3.08672119 10.4290332 3.44419434 11.5 3.8125 C19.22698141 6.4347132 26.93470113 8.89521593 34.80078125 11.0625 C50.73056995 15.73056995 50.73056995 15.73056995 53 18 C53.94355729 31.33989857 53.9291471 45.13672079 50 58 C38.66343457 59.22741761 38.66343457 59.22741761 34.82421875 56.39453125 C33.68654946 55.00055945 32.59342677 53.56908694 31.546875 52.10546875 C28.23524747 47.59797572 23.31158793 44.61953895 18 43 C14.71066742 42.69981472 11.43416372 42.69592921 8.1328125 42.69921875 C6.70338821 42.69279106 6.70338821 42.69279106 5.24508667 42.68623352 C3.23289788 42.68050111 1.22068836 42.67998192 -0.79150391 42.68432617 C-3.85745929 42.68748195 -6.92244534 42.66402767 -9.98828125 42.63867188 C-11.94791546 42.63639824 -13.90755224 42.63569568 -15.8671875 42.63671875 C-16.77781952 42.627509 -17.68845154 42.61829926 -18.62667847 42.60881042 C-26.0881542 42.66258675 -31.53460714 44.22329146 -37.1875 49.375 C-37.82042969 49.93960938 -38.45335938 50.50421875 -39.10546875 51.0859375 C-41.13212016 53.01343341 -41.13212016 53.01343341 -42.81640625 55.70703125 C-45 58 -45 58 -48.234375 58.48828125 C-49.97460938 58.40126953 -49.97460938 58.40126953 -51.75 58.3125 C-52.92046875 58.26738281 -54.0909375 58.22226563 -55.296875 58.17578125 C-56.63492188 58.08876953 -56.63492188 58.08876953 -58 58 C-62.01013684 44.87157583 -61.29863711 31.57803414 -61 18 C-54.55197487 14.98293429 -48.02658476 12.52347876 -41.26953125 10.29296875 C-39.778451 9.79848991 -39.778451 9.79848991 -38.25724792 9.29402161 C-36.17147098 8.60492264 -34.08481123 7.91849052 -31.99731445 7.23461914 C-28.80689958 6.18565867 -25.62332142 5.11746891 -22.43945312 4.04882812 C-20.40403807 3.37901524 -18.36824329 2.7103549 -16.33203125 2.04296875 C-15.3850386 1.72224899 -14.43804596 1.40152924 -13.46235657 1.0710907 C-8.58393806 -0.50210469 -5.06883838 -1.50256003 0 0 Z " fill="#D2464B" transform="translate(74,24)"/>
<path d="M0 0 C17.16 0 34.32 0 52 0 C52.495 3.96 52.495 3.96 53 8 C55.31 8.66 57.62 9.32 60 10 C54.2238909 22.57923317 39.08091181 33.03738897 26.9765625 38.99609375 C23.62324744 39.00272085 21.18937542 37.05865939 18.5 35.25 C17.88632568 34.84604004 17.27265137 34.44208008 16.64038086 34.02587891 C10.16575176 29.63825166 4.57437762 24.45910245 -1 19 C-1.75925781 18.27941406 -2.51851562 17.55882813 -3.30078125 16.81640625 C-6.82413249 13.42014984 -6.82413249 13.42014984 -8 12 C-8 11.34 -8 10.68 -8 10 C-5.69 9.34 -3.38 8.68 -1 8 C-0.67 5.36 -0.34 2.72 0 0 Z " fill="#D1464A" transform="translate(44,109)"/>
<path d="M0 0 C4.93239524 0.82206587 9.40400601 1.96558774 14.125 3.5 C14.91817627 3.75410645 15.71135254 4.00821289 16.52856445 4.27001953 C18.32156978 4.84511852 20.11392846 5.4222361 21.90576172 6.00097656 C25.42668407 7.13776165 28.94956633 8.26839397 32.47265625 9.3984375 C39.31656523 11.59442851 46.15870269 13.79588463 53 16 C53.05898369 19.45825936 53.09392131 22.9163862 53.125 26.375 C53.14175781 27.34050781 53.15851563 28.30601563 53.17578125 29.30078125 C53.21924836 35.77738043 52.53232671 41.706577 51 48 C47.79229645 48.9789716 45.36485708 49.54497685 42 49 C39.25565505 46.75856818 37.09353059 44.35031683 34.84765625 41.61328125 C27.83849312 35.18100398 19.53962013 34.3868479 10.375 34.25 C6.95125 34.1675 3.5275 34.085 0 34 C0 22.78 0 11.56 0 0 Z " fill="#C81A20" transform="translate(70,29)"/>
<path d="M0 0 C0.87849609 0.25885986 1.75699219 0.51771973 2.66210938 0.78442383 C3.54705078 1.08888428 4.43199219 1.39334473 5.34375 1.70703125 C6.33584473 2.04436279 7.32793945 2.38169434 8.35009766 2.72924805 C9.38956543 3.08672119 10.4290332 3.44419434 11.5 3.8125 C19.22698141 6.4347132 26.93470113 8.89521593 34.80078125 11.0625 C50.73056995 15.73056995 50.73056995 15.73056995 53 18 C53.94355729 31.33989857 53.9291471 45.13672079 50 58 C38.66343457 59.22741761 38.66343457 59.22741761 34.82421875 56.39453125 C33.68654946 55.00055945 32.59342677 53.56908694 31.546875 52.10546875 C28.23524747 47.59797572 23.31158793 44.61953895 18 43 C14.71066742 42.69981472 11.43416372 42.69592921 8.1328125 42.69921875 C6.70338821 42.69279106 6.70338821 42.69279106 5.24508667 42.68623352 C3.23289788 42.68050111 1.22068836 42.67998192 -0.79150391 42.68432617 C-3.85745929 42.68748195 -6.92244534 42.66402767 -9.98828125 42.63867188 C-11.94791546 42.63639824 -13.90755224 42.63569568 -15.8671875 42.63671875 C-16.77781952 42.627509 -17.68845154 42.61829926 -18.62667847 42.60881042 C-26.0881542 42.66258675 -31.53460714 44.22329146 -37.1875 49.375 C-37.82042969 49.93960938 -38.45335938 50.50421875 -39.10546875 51.0859375 C-41.13212016 53.01343341 -41.13212016 53.01343341 -42.81640625 55.70703125 C-45 58 -45 58 -48.234375 58.48828125 C-49.97460938 58.40126953 -49.97460938 58.40126953 -51.75 58.3125 C-52.92046875 58.26738281 -54.0909375 58.22226563 -55.296875 58.17578125 C-56.63492188 58.08876953 -56.63492188 58.08876953 -58 58 C-62.01013684 44.87157583 -61.29863711 31.57803414 -61 18 C-54.55197487 14.98293429 -48.02658476 12.52347876 -41.26953125 10.29296875 C-39.778451 9.79848991 -39.778451 9.79848991 -38.25724792 9.29402161 C-36.17147098 8.60492264 -34.08481123 7.91849052 -31.99731445 7.23461914 C-28.80689958 6.18565867 -25.62332142 5.11746891 -22.43945312 4.04882812 C-20.40403807 3.37901524 -18.36824329 2.7103549 -16.33203125 2.04296875 C-15.3850386 1.72224899 -14.43804596 1.40152924 -13.46235657 1.0710907 C-8.58393806 -0.50210469 -5.06883838 -1.50256003 0 0 Z M-11.23828125 5.94140625 C-11.86751495 6.14468033 -12.49674866 6.34795441 -13.14505005 6.55738831 C-15.20183685 7.22280635 -17.25718859 7.89254006 -19.3125 8.5625 C-20.71943172 9.01887379 -22.12641434 9.47509067 -23.53344727 9.93115234 C-34.70960484 13.55880022 -45.86403409 17.25076733 -57 21 C-57.2071352 31.89761308 -57.15729044 42.27133239 -55 53 C-51.39038314 54.12430689 -49.64384406 54.66777517 -46 54 C-42.85556031 51.44322408 -40.42175429 48.80419566 -37.7734375 45.734375 C-31.75397805 39.79969667 -25.66173685 39.54121137 -17.60546875 39.56640625 C-16.61807205 39.5611644 -15.63067535 39.55592255 -14.61335754 39.55052185 C-12.53155453 39.54412117 -10.44971525 39.54541322 -8.36791992 39.55395508 C-5.20750399 39.56244625 -2.04890878 39.53370564 1.11132812 39.50195312 C3.14322863 39.50034024 5.1751323 39.50092031 7.20703125 39.50390625 C8.60596367 39.48705528 8.60596367 39.48705528 10.03315735 39.46986389 C17.88663096 39.55194121 24.95266197 41.20347168 30.84765625 46.61328125 C31.94400391 47.94939453 31.94400391 47.94939453 33.0625 49.3125 C36.25070043 52.93734089 36.25070043 52.93734089 40.62890625 54.42578125 C42.88193645 54.15428935 44.83828279 53.65974294 47 53 C48.77625723 45.70472932 49.25501764 38.86601622 49.125 31.375 C49.11597656 30.37082031 49.10695313 29.36664063 49.09765625 28.33203125 C49.07437746 25.88775874 49.04168487 23.44401592 49 21 C47.85112305 20.62713867 46.70224609 20.25427734 45.51855469 19.87011719 C41.20199386 18.4690631 36.88563638 17.06738339 32.56933594 15.66552734 C30.7113173 15.06217006 28.85324564 14.45897603 26.99511719 13.85595703 C24.30389214 12.98254008 21.6128555 12.10854508 18.921875 11.234375 C18.05284546 10.95235229 17.18381592 10.67032959 16.28845215 10.37976074 C10.53998858 8.51100906 4.80752723 6.60172983 -0.90917969 4.63769531 C-4.78920231 3.45429748 -7.44233834 4.71052587 -11.23828125 5.94140625 Z " fill="#F2EEF1" transform="translate(74,24)"/>
<path d="M0 0 C1.18916016 0.01353516 1.18916016 0.01353516 2.40234375 0.02734375 C4.35169281 0.05082988 6.30088575 0.08669863 8.25 0.125 C8.25 1.115 8.25 2.105 8.25 3.125 C12.21 3.125 16.17 3.125 20.25 3.125 C20.25 2.135 20.25 1.145 20.25 0.125 C22.79232342 0.04347656 25.33199202 -0.01573716 27.875 -0.0625 C28.58785156 -0.08763672 29.30070312 -0.11277344 30.03515625 -0.13867188 C36.32829251 -0.22527467 40.16692113 1.34118034 45.0234375 5.5 C45.88195312 6.36625 46.74046875 7.2325 47.625 8.125 C48.49898438 8.99125 49.37296875 9.8575 50.2734375 10.75 C52.25 13.125 52.25 13.125 52.25 16.125 C27.17 16.125 2.09 16.125 -23.75 16.125 C-22.60545714 11.54682856 -21.25312827 10.25251968 -17.9375 7 C-17.06480469 6.13117188 -16.19210938 5.26234375 -15.29296875 4.3671875 C-10.20801221 -0.11632257 -6.56919638 -0.14162447 0 0 Z " fill="#F5F9FB" transform="translate(55.75,69.875)"/>
<path d="M0 0 C17.16 0 34.32 0 52 0 C52.495 3.96 52.495 3.96 53 8 C55.31 8.66 57.62 9.32 60 10 C54.2238909 22.57923317 39.08091181 33.03738897 26.9765625 38.99609375 C23.62324744 39.00272085 21.18937542 37.05865939 18.5 35.25 C17.88632568 34.84604004 17.27265137 34.44208008 16.64038086 34.02587891 C10.16575176 29.63825166 4.57437762 24.45910245 -1 19 C-1.75925781 18.27941406 -2.51851562 17.55882813 -3.30078125 16.81640625 C-6.82413249 13.42014984 -6.82413249 13.42014984 -8 12 C-8 11.34 -8 10.68 -8 10 C-5.69 9.34 -3.38 8.68 -1 8 C-0.67 5.36 -0.34 2.72 0 0 Z M4 4 C2.515 7.465 2.515 7.465 1 11 C0.01 11.495 0.01 11.495 -1 12 C0.56761475 15.94670066 3.28658381 18.461962 6.375 21.25 C6.90230713 21.72655029 7.42961426 22.20310059 7.97290039 22.6940918 C15.89394334 29.75403346 15.89394334 29.75403346 25 35 C34.5340831 32.8157209 44.40048919 22.87072358 51 16 C52.2644133 13.86172902 52.2644133 13.86172902 53 12 C52.54625 11.608125 52.0925 11.21625 51.625 10.8125 C50 9 50 9 48 4 C33.48 4 18.96 4 4 4 Z " fill="#F0EDF1" transform="translate(44,109)"/>
<path d="M0 0 C-1.98 0.33 -3.96 0.66 -6 1 C-5.4699529 11.67988521 -4.89918304 22.34372444 -4 33 C-0.38090163 33.6526243 1.50556407 33.9278156 5 33 C8.09271794 30.41195151 10.57810298 27.7413682 13.2265625 24.69921875 C19.27374467 18.81386259 25.34455258 18.54123104 33.39453125 18.56640625 C34.8756263 18.55854347 34.8756263 18.55854347 36.38664246 18.55052185 C38.46844547 18.54412117 40.55028475 18.54541322 42.63208008 18.55395508 C45.79249601 18.56244625 48.95109122 18.53370564 52.11132812 18.50195312 C54.14322863 18.50034024 56.1751323 18.50092031 58.20703125 18.50390625 C59.60596367 18.48705528 59.60596367 18.48705528 61.03315735 18.46986389 C68.88016722 18.55187366 75.92502582 20.21607276 81.84765625 25.578125 C82.94400391 26.90070313 82.94400391 26.90070313 84.0625 28.25 C87.29426226 31.85888519 87.29426226 31.85888519 91.62890625 33.6484375 C94.36842526 33.68510384 94.36842526 33.68510384 98 33 C97.979375 31.906875 97.95875 30.81375 97.9375 29.6875 C98 26 98 26 99 23 C99.1464714 21.44733347 99.24694074 19.89004338 99.31640625 18.33203125 C99.35830078 17.43935547 99.40019531 16.54667969 99.44335938 15.62695312 C99.48267578 14.69818359 99.52199219 13.76941406 99.5625 12.8125 C99.62727539 11.40194336 99.62727539 11.40194336 99.69335938 9.96289062 C99.79938665 7.64207146 99.90145029 5.32114675 100 3 C100.33 3 100.66 3 101 3 C101.04898438 3.89203125 101.09796875 4.7840625 101.1484375 5.703125 C101.26058594 7.45882812 101.26058594 7.45882812 101.375 9.25 C101.47941406 10.99023438 101.47941406 10.99023438 101.5859375 12.765625 C101.97171073 15.77902347 102.64755522 17.36776244 104 20 C104.046875 22.04296875 104.046875 22.04296875 103.75 24.1875 C103.64300781 24.96351562 103.53601563 25.73953125 103.42578125 26.5390625 C102.75888046 30.39362672 101.92534043 34.19981551 101 38 C89.66343457 39.22741761 89.66343457 39.22741761 85.82421875 36.39453125 C84.68654946 35.00055945 83.59342677 33.56908694 82.546875 32.10546875 C79.23524747 27.59797572 74.31158793 24.61953895 69 23 C65.71066742 22.69981472 62.43416372 22.69592921 59.1328125 22.69921875 C58.17986298 22.69493362 57.22691345 22.6906485 56.24508667 22.68623352 C54.23289788 22.68050111 52.22068836 22.67998192 50.20849609 22.68432617 C47.14254071 22.68748195 44.07755466 22.66402767 41.01171875 22.63867188 C39.05208454 22.63639824 37.09244776 22.63569568 35.1328125 22.63671875 C34.22218048 22.627509 33.31154846 22.61829926 32.37332153 22.60881042 C24.9118458 22.66258675 19.46539286 24.22329146 13.8125 29.375 C13.17957031 29.93960938 12.54664062 30.50421875 11.89453125 31.0859375 C9.86787984 33.01343341 9.86787984 33.01343341 8.18359375 35.70703125 C6 38 6 38 2.765625 38.48828125 C1.02539062 38.40126953 1.02539062 38.40126953 -0.75 38.3125 C-1.92046875 38.26738281 -3.0909375 38.22226563 -4.296875 38.17578125 C-5.63492187 38.08876953 -5.63492187 38.08876953 -7 38 C-7.37092082 36.50405489 -7.72073208 35.00287349 -8.0625 33.5 C-8.25972656 32.6646875 -8.45695313 31.829375 -8.66015625 30.96875 C-9.00834539 27.92709776 -8.73352977 25.26647715 -8.29125977 22.24804688 C-7.74332723 18.01890787 -7.62624784 13.75765611 -7.4375 9.5 C-7.39431641 8.5821875 -7.35113281 7.664375 -7.30664062 6.71875 C-7.20166544 4.47927939 -7.09950752 2.23971908 -7 0 C-3.86650268 -1.04449911 -3.01031744 -0.93423645 0 0 Z " fill="#F3E6EA" transform="translate(23,44)"/>
<path d="M0 0 C7.26 0 14.52 0 22 0 C22.99 2.31 23.98 4.62 25 7 C25.66 7.33 26.32 7.66 27 8 C23.63876755 15.32494997 17.19109763 19.76676844 10.8125 24.375 C10.20631836 24.81602051 9.60013672 25.25704102 8.97558594 25.71142578 C5.89460491 27.88818736 3.71418567 29.07145358 0 30 C0 20.1 0 10.2 0 0 Z " fill="#C61A20" transform="translate(70,113)"/>
<path d="M0 0 C1.26263672 1.17369141 1.26263672 1.17369141 2.55078125 2.37109375 C4.6875 4.5625 4.6875 4.5625 6.6875 7.5625 C9.28946614 7.85138898 9.28946614 7.85138898 12.1875 7.625 C15.15625 7.47265625 15.15625 7.47265625 17.6875 7.5625 C18.3475 8.2225 19.0075 8.8825 19.6875 9.5625 C18.6975 9.5625 17.7075 9.5625 16.6875 9.5625 C16.1925 12.0375 16.1925 12.0375 15.6875 14.5625 C14.0375 14.8925 12.3875 15.2225 10.6875 15.5625 C10.6875 19.5225 10.6875 23.4825 10.6875 27.5625 C10.0275 27.5625 9.3675 27.5625 8.6875 27.5625 C8.39875 26.469375 8.11 25.37625 7.8125 24.25 C6.6757915 21.48382267 6.01614463 20.71597334 3.26171875 19.4296875 C0.7478014 18.69720239 -1.7439233 18.06850479 -4.3125 17.5625 C-4.3125 17.2325 -4.3125 16.9025 -4.3125 16.5625 C-3.508125 16.43875 -2.70375 16.315 -1.875 16.1875 C-1.029375 15.98125 -0.18375 15.775 0.6875 15.5625 C1.0175 14.9025 1.3475 14.2425 1.6875 13.5625 C-2.9325 13.5625 -7.5525 13.5625 -12.3125 13.5625 C-12.3125 13.2325 -12.3125 12.9025 -12.3125 12.5625 C-7.0325 12.5625 -1.7525 12.5625 3.6875 12.5625 C1.43365365 8.80608942 -0.20605492 6.37384651 -3.1875 3.375 C-3.84492187 2.70082031 -4.50234375 2.02664062 -5.1796875 1.33203125 C-9.91500518 -2.59672133 -14.72199751 -2.8092881 -20.625 -3.0625 C-21.73584961 -3.12050781 -21.73584961 -3.12050781 -22.86914062 -3.1796875 C-24.68321309 -3.27331705 -26.49782116 -3.35646851 -28.3125 -3.4375 C-28.3125 -2.4475 -28.3125 -1.4575 -28.3125 -0.4375 C-31.9425 -0.7675 -35.5725 -1.0975 -39.3125 -1.4375 C-38.9825 -2.7575 -38.6525 -4.0775 -38.3125 -5.4375 C-34.12580477 -5.66477902 -29.9382406 -5.86593191 -25.75 -6.0625 C-24.56857422 -6.12695312 -23.38714844 -6.19140625 -22.16992188 -6.2578125 C-12.91669508 -6.67252294 -7.01510693 -6.64416815 0 0 Z " fill="#14345B" transform="translate(104.3125,73.4375)"/>
<path d="M0 0 C17.16 0 34.32 0 52 0 C52.495 3.96 52.495 3.96 53 8 C53.495 8.99 53.495 8.99 54 10 C53.67 10.66 53.34 11.32 53 12 C50 11 50 11 48.8125 9.125 C48 7 48 7 48 4 C33.48 4 18.96 4 4 4 C3.67 5.65 3.34 7.3 3 9 C0.76152748 12.35770877 0.59041601 12.2145965 -3 13 C-3.66 13.66 -4.32 14.32 -5 15 C-6.5 13.625 -6.5 13.625 -8 12 C-8 11.34 -8 10.68 -8 10 C-5.69 9.34 -3.38 8.68 -1 8 C-0.67 5.36 -0.34 2.72 0 0 Z " fill="#D6CBD3" transform="translate(44,109)"/>
<path d="M0 0 C-1.98 0.33 -3.96 0.66 -6 1 C-5.4699529 11.67988521 -4.89918304 22.34372444 -4 33 C-0.38090163 33.6526243 1.50556407 33.9278156 5 33 C8.09271794 30.41195151 10.57810298 27.7413682 13.2265625 24.69921875 C18.59319067 19.47620458 23.57805029 18.65833095 30.8065033 18.66011047 C32.26160057 18.68333626 32.26160057 18.68333626 33.74609375 18.70703125 C34.75720718 18.71127609 35.76832062 18.71552094 36.81007385 18.71989441 C40.01949401 18.73660246 43.22827165 18.77424047 46.4375 18.8125 C48.62173568 18.82755699 50.80598127 18.84124362 52.99023438 18.85351562 C58.3270398 18.88648009 63.66347398 18.93660057 69 19 C69 19.33 69 19.66 69 20 C67.3142688 20.01401855 67.3142688 20.01401855 65.59448242 20.02832031 C61.37648635 20.06855874 57.15919401 20.1344069 52.94165039 20.20751953 C51.12533695 20.23553465 49.308906 20.25684474 47.49243164 20.27099609 C29.39176288 20.19370227 29.39176288 20.19370227 14.0625 28.9375 C13.02802734 29.91009766 13.02802734 29.91009766 11.97265625 30.90234375 C9.89132669 33.00091533 9.89132669 33.00091533 8.16796875 35.734375 C6 38 6 38 2.765625 38.48828125 C1.02539062 38.40126953 1.02539062 38.40126953 -0.75 38.3125 C-1.92046875 38.26738281 -3.0909375 38.22226563 -4.296875 38.17578125 C-5.63492187 38.08876953 -5.63492187 38.08876953 -7 38 C-7.37092082 36.50405489 -7.72073208 35.00287349 -8.0625 33.5 C-8.25972656 32.6646875 -8.45695313 31.829375 -8.66015625 30.96875 C-9.00834539 27.92709776 -8.73352977 25.26647715 -8.29125977 22.24804688 C-7.74332723 18.01890787 -7.62624784 13.75765611 -7.4375 9.5 C-7.39431641 8.5821875 -7.35113281 7.664375 -7.30664062 6.71875 C-7.20166544 4.47927939 -7.09950752 2.23971908 -7 0 C-3.86650268 -1.04449911 -3.01031744 -0.93423645 0 0 Z " fill="#F5E9EB" transform="translate(23,44)"/>
<path d="M0 0 C0.96813629 0.0028299 1.93627258 0.00565979 2.93374634 0.00857544 C6.01064678 0.01972554 9.08725078 0.0448207 12.1640625 0.0703125 C14.2565062 0.08034898 16.34895448 0.08947366 18.44140625 0.09765625 C23.55740501 0.11964797 28.67318358 0.15414225 33.7890625 0.1953125 C33.7890625 0.8553125 33.7890625 1.5153125 33.7890625 2.1953125 C25.2090625 2.5253125 16.6290625 2.8553125 7.7890625 3.1953125 C7.4590625 4.1853125 7.1290625 5.1753125 6.7890625 6.1953125 C9.0990625 6.1953125 11.4090625 6.1953125 13.7890625 6.1953125 C13.7890625 6.5253125 13.7890625 6.8553125 13.7890625 7.1953125 C11.1490625 7.1953125 8.5090625 7.1953125 5.7890625 7.1953125 C5.7890625 6.2053125 5.7890625 5.2153125 5.7890625 4.1953125 C3.07847105 4.25568202 0.37312273 4.3428316 -2.3359375 4.4453125 C-3.47675781 4.46658203 -3.47675781 4.46658203 -4.640625 4.48828125 C-11.74622831 4.79455725 -15.82004672 7.81132861 -21.0859375 12.4453125 C-21.68148437 12.96609375 -22.27703125 13.486875 -22.890625 14.0234375 C-23.32632813 14.41015625 -23.76203125 14.796875 -24.2109375 15.1953125 C-24.2109375 14.2053125 -24.2109375 13.2153125 -24.2109375 12.1953125 C-24.8709375 11.8653125 -25.5309375 11.5353125 -26.2109375 11.1953125 C-24.68041634 9.72528624 -23.13596896 8.26975194 -21.5859375 6.8203125 C-20.72742187 6.00820312 -19.86890625 5.19609375 -18.984375 4.359375 C-13.08768787 -0.241702 -7.1560878 -0.07930319 0 0 Z " fill="#2E4C6D" transform="translate(58.2109375,65.8046875)"/>
<path d="M0 0 C0.84175781 0.75925781 1.68351562 1.51851563 2.55078125 2.30078125 C4.70794047 4.71033204 5.70839009 6.63116245 6.6875 9.6875 C6.0275 9.6875 5.3675 9.6875 4.6875 9.6875 C4.1925 11.1725 4.1925 11.1725 3.6875 12.6875 C3.1925 11.6975 3.1925 11.6975 2.6875 10.6875 C-1.07108451 5.04962323 -5.64070428 -0.37796235 -12.3125 -2.3125 C-15.07946598 -2.66834436 -17.83892168 -2.81798994 -20.625 -2.9375 C-21.73584961 -2.99550781 -21.73584961 -2.99550781 -22.86914062 -3.0546875 C-24.68321309 -3.14831705 -26.49782116 -3.23146851 -28.3125 -3.3125 C-28.3125 -2.3225 -28.3125 -1.3325 -28.3125 -0.3125 C-31.9425 -0.6425 -35.5725 -0.9725 -39.3125 -1.3125 C-38.9825 -2.6325 -38.6525 -3.9525 -38.3125 -5.3125 C-34.12580477 -5.53977902 -29.9382406 -5.74093191 -25.75 -5.9375 C-24.56857422 -6.00195312 -23.38714844 -6.06640625 -22.16992188 -6.1328125 C-12.99211909 -6.5441426 -7.02933377 -6.50459346 0 0 Z " fill="#15355C" transform="translate(104.3125,73.3125)"/>
<path d="M0 0 C4.26377576 0.50866097 6.33650972 1.74539623 9.375 4.75 C10.08398438 5.42546875 10.79296875 6.1009375 11.5234375 6.796875 C13 9 13 9 12.7265625 11.765625 C12.36691406 12.87164062 12.36691406 12.87164062 12 14 C11.01 14.33 10.02 14.66 9 15 C9.99 16.32 10.98 17.64 12 19 C11.67 19.66 11.34 20.32 11 21 C8.94912658 19.02441562 6.93823529 17.02532533 4.9375 15 C4.06641602 14.17048828 4.06641602 14.17048828 3.17773438 13.32421875 C-0.92690309 9.0981423 -0.92690309 9.0981423 -1.14794922 5.77734375 C-0.87109375 3.5625 -0.87109375 3.5625 0 0 Z " fill="#193A62" transform="translate(37,125)"/>
<path d="M0 0 C1.04929687 -0.01417969 2.09859375 -0.02835937 3.1796875 -0.04296875 C6.06047071 0.18245063 7.68740208 0.69785683 10.125 2.1875 C10.3125 4.5625 10.3125 4.5625 10.125 7.1875 C6.31855712 9.72512859 4.65142303 9.70692559 0.125 9.1875 C-2.80056822 7.85769626 -5.50516216 6.37267515 -7.875 4.1875 C-7.875 3.1975 -7.875 2.2075 -7.875 1.1875 C-5.17835792 -0.16082104 -3.00912479 0.01839318 0 0 Z " fill="#EFF5F9" transform="translate(37.875,91.8125)"/>
<path d="M0 0 C1.42892578 0.00966797 1.42892578 0.00966797 2.88671875 0.01953125 C5.3125 0.1875 5.3125 0.1875 7.3125 1.1875 C6.9459837 3.67981085 6.72571026 4.86096311 4.7109375 6.453125 C0.08712065 8.70254941 -3.42809132 9.81862904 -8.6875 9.1875 C-10.6875 7.1875 -10.6875 7.1875 -10.8125 4.5625 C-10.77125 3.77875 -10.73 2.995 -10.6875 2.1875 C-6.97031921 0.47448226 -4.08360651 -0.06128195 0 0 Z " fill="#F0F6F9" transform="translate(102.6875,91.8125)"/>
<path d="M0 0 C1.01111343 0.00424484 2.02222687 0.00848969 3.0639801 0.01286316 C6.27340026 0.02957121 9.4821779 0.06720922 12.69140625 0.10546875 C14.87564193 0.12052574 17.05988752 0.13421237 19.24414062 0.14648438 C24.58094605 0.17944884 29.91738023 0.22956932 35.25390625 0.29296875 C35.25390625 0.62296875 35.25390625 0.95296875 35.25390625 1.29296875 C33.56817505 1.3069873 33.56817505 1.3069873 31.84838867 1.32128906 C27.6303926 1.36152749 23.41310026 1.42737565 19.19555664 1.50048828 C17.3792432 1.5285034 15.56281225 1.54981349 13.74633789 1.56396484 C-4.5459508 1.51789134 -4.5459508 1.51789134 -19.93359375 10.54296875 C-20.66964844 11.249375 -21.40570313 11.95578125 -22.1640625 12.68359375 C-22.68613281 13.2146875 -23.20820312 13.74578125 -23.74609375 14.29296875 C-24.73609375 13.63296875 -25.72609375 12.97296875 -26.74609375 12.29296875 C-25.40543209 10.84286533 -24.04780016 9.40844441 -22.68359375 7.98046875 C-21.92949219 7.17996094 -21.17539062 6.37945312 -20.3984375 5.5546875 C-13.99977489 0.09839052 -8.0830445 -0.1290189 0 0 Z " fill="#F8D2D5" transform="translate(56.74609375,62.70703125)"/>
<path d="M0 0 C1.29099861 0.00022659 1.29099861 0.00022659 2.608078 0.00045776 C3.99571098 0.01594162 3.99571098 0.01594162 5.41137695 0.03173828 C6.36156204 0.03456818 7.31174713 0.03739807 8.29072571 0.04031372 C11.32716435 0.05151363 14.36330863 0.0766179 17.3996582 0.10205078 C19.45759665 0.11208082 21.51553972 0.12120663 23.57348633 0.12939453 C28.6198238 0.15145236 33.66594108 0.18598096 38.7121582 0.22705078 C38.3821582 1.21705078 38.0521582 2.20705078 37.7121582 3.22705078 C22.8621582 2.89705078 8.0121582 2.56705078 -7.2878418 2.22705078 C-4.17476243 0.15166454 -3.52435985 -0.02067073 0 0 Z " fill="#FBF8FA" transform="translate(57.287841796875,63.77294921875)"/>
<path d="M0 0 C5.08552011 1.28980582 7.44173269 3.15082659 10.875 7.0625 C15.00988319 11.48205832 15.00988319 11.48205832 20.625 13.125 C21.73875 13.08375 22.8525 13.0425 24 13 C24 13.66 24 14.32 24 15 C21.03 15.66 18.06 16.32 15 17 C14.57589844 16.48050781 14.15179688 15.96101563 13.71484375 15.42578125 C9.81908953 10.79368667 6.06372839 7.31089933 1 4 C0.01 3.34 -0.98 2.68 -2 2 C-1.34 1.34 -0.68 0.68 0 0 Z " fill="#F3F0F4" transform="translate(96,65)"/>
<path d="M0 0 C5.68727921 3.02136708 11.53325733 7.12762893 14.5 12.9375 C14.7475 13.9584375 14.7475 13.9584375 15 15 C14.34 15 13.68 15 13 15 C12.67 15.99 12.34 16.98 12 18 C11.67 17.34 11.34 16.68 11 16 C7.13723377 10.20585065 2.6926428 5.27363301 -4 3 C-2.68 2.01 -1.36 1.02 0 0 Z " fill="#234060" transform="translate(96,68)"/>
<path d="M0 0 C1.9375 0.3125 1.9375 0.3125 4 1 C5.35201312 5.05603936 5.18417967 8.81579445 5.1875 13.0625 C5.19974609 13.89072266 5.21199219 14.71894531 5.22460938 15.57226562 C5.22654297 16.36439453 5.22847656 17.15652344 5.23046875 17.97265625 C5.23457764 18.69718994 5.23868652 19.42172363 5.24291992 20.16821289 C5 22 5 22 3 24 C3 22.35 3 20.7 3 19 C2.67 19 2.34 19 2 19 C1.93941406 18.04738281 1.87882812 17.09476563 1.81640625 16.11328125 C1.73261719 14.85902344 1.64882812 13.60476562 1.5625 12.3125 C1.48128906 11.07113281 1.40007812 9.82976563 1.31640625 8.55078125 C1.05508683 5.61819663 0.65201621 2.86558383 0 0 Z " fill="#F8FAFC" transform="translate(122,42)"/>
<path d="M0 0 C5.85659906 1.66153012 11.4590134 3.47041916 17 6 C16.67 7.32 16.34 8.64 16 10 C15.67 9.01 15.34 8.02 15 7 C14.01 6.67 13.02 6.34 12 6 C12 6.99 12 7.98 12 9 C9.03 8.505 9.03 8.505 6 8 C6 7.01 6 6.02 6 5 C4.35 5 2.7 5 1 5 C0.67 3.35 0.34 1.7 0 0 Z " fill="#EDECF0" transform="translate(110,36)"/>
<path d="M0 0 C0.66 0 1.32 0 2 0 C2.0741205 5.35682133 2.12858776 10.71334462 2.16479492 16.07055664 C2.1798876 17.89320067 2.20036395 19.71580836 2.22631836 21.53833008 C2.26268103 24.157155 2.27972124 26.77550007 2.29296875 29.39453125 C2.30845261 30.21025101 2.32393646 31.02597076 2.33988953 31.8664093 C2.34160054 37.60944422 2.34160054 37.60944422 0.47871399 39.73930359 C-0.00926163 40.1553334 -0.49723724 40.57136322 -1 41 C-0.9285376 40.23341064 -0.8570752 39.46682129 -0.78344727 38.67700195 C-0.05127834 30.16146168 0.12086329 21.73098815 0.0625 13.1875 C0.05798828 11.91068359 0.05347656 10.63386719 0.04882812 9.31835938 C0.03719452 6.21218789 0.02085075 3.10612092 0 0 Z " fill="#E1ECF3" transform="translate(136,36)"/>
<path d="M0 0 C0.66 0.33 1.32 0.66 2 1 C1.401875 1.556875 0.80375 2.11375 0.1875 2.6875 C-2.07695315 4.89304522 -2.07695315 4.89304522 -3.4375 7.5625 C-5.34094699 10.53187731 -6.76563006 11.60334025 -10 13 C-13.8125 13.1875 -13.8125 13.1875 -17 13 C-13.49421263 10.15314712 -9.91426465 7.45176089 -6.25 4.8125 C-2.99048626 2.56925888 -2.99048626 2.56925888 0 0 Z " fill="#F6ECEF" transform="translate(86,132)"/>
<path d="M0 0 C2 0 2 0 3.62109375 1.57421875 C6.76103948 5.22735992 9.72665989 8.72077156 12 13 C11.01 13.33 10.02 13.66 9 14 C7.2978302 12.4324482 5.61359446 10.84540216 3.9375 9.25 C2.99777344 8.36828125 2.05804688 7.4865625 1.08984375 6.578125 C-1 4 -1 4 -0.80859375 1.671875 C-0.54175781 1.12015625 -0.27492187 0.5684375 0 0 Z " fill="#F9F5F8" transform="translate(41,121)"/>
<path d="M0 0 C-1.63958758 5.23272633 -3.38952035 10.15196636 -6 15 C-6.33 15 -6.66 15 -7 15 C-7 10.71 -7 6.42 -7 2 C-2 0 -2 0 0 0 Z " fill="#D4E2ED" transform="translate(122,87)"/>
<path d="M0 0 C2.31 0.66 4.62 1.32 7 2 C7 6.29 7 10.58 7 15 C4.7197488 11.95966506 3.28706127 9.75349671 1.8125 6.375 C1.46832031 5.59898438 1.12414062 4.82296875 0.76953125 4.0234375 C0 2 0 2 0 0 Z " fill="#D8E9F6" transform="translate(18,87)"/>
<path d="M0 0 C5.96351455 1.27789598 8.48417174 4.33716394 12 9 C7.65956416 7.91489104 4.4100338 6.92288612 1 4 C0.01 3.34 -0.98 2.68 -2 2 C-1.34 1.34 -0.68 0.68 0 0 Z " fill="#EDE3E6" transform="translate(96,65)"/>
<path d="M0 0 C0 0.66 0 1.32 0 2 C0.99 2 1.98 2 3 2 C3 2.66 3 3.32 3 4 C2.24460937 3.84660156 1.48921875 3.69320312 0.7109375 3.53515625 C-4.3090917 2.8112152 -9.31060444 2.63680847 -14.375 2.4375 C-15.39722656 2.39431641 -16.41945313 2.35113281 -17.47265625 2.30664062 C-19.98165288 2.20112208 -22.49073943 2.09900787 -25 2 C-25 1.67 -25 1.34 -25 1 C-21.20836402 0.8326303 -17.4166864 0.66622322 -13.625 0.5 C-12.54476562 0.45230469 -11.46453125 0.40460937 -10.3515625 0.35546875 C-9.3203125 0.31035156 -8.2890625 0.26523437 -7.2265625 0.21875 C-6.27346191 0.17685547 -5.32036133 0.13496094 -4.33837891 0.09179688 C-2.89304218 0.03505783 -1.44644999 0 0 0 Z " fill="#B12428" transform="translate(95,61)"/>
<path d="M0 0 C-0.33 1.98 -0.66 3.96 -1 6 C-4.3 5.67 -7.6 5.34 -11 5 C-11 4.67 -11 4.34 -11 4 C-9.02 4 -7.04 4 -5 4 C-5 3.34 -5 2.68 -5 2 C-7.31 2 -9.62 2 -12 2 C-12 1.67 -12 1.34 -12 1 C-10.56274129 0.83126522 -9.12518162 0.66509263 -7.6875 0.5 C-6.88699219 0.4071875 -6.08648437 0.314375 -5.26171875 0.21875 C-3 0 -3 0 0 0 Z " fill="#DBCCD7" transform="translate(125,76)"/>
<path d="M0 0 C0.99 0 1.98 0 3 0 C3.309375 0.94875 3.61875 1.8975 3.9375 2.875 C4.87394742 5.86080408 4.87394742 5.86080408 6 8 C5.67 8.66 5.34 9.32 5 10 C2 9 2 9 0.8125 7.25 C-0.10819096 4.70039426 -0.14948718 2.69076919 0 0 Z " fill="#F8E6EA" transform="translate(92,111)"/>
<path d="M0 0 C0.66 0.33 1.32 0.66 2 1 C1.401875 1.556875 0.80375 2.11375 0.1875 2.6875 C-1.9863446 4.98556429 -3.46898083 7.24416549 -5 10 C-6.32 9.34 -7.64 8.68 -9 8 C-6.17493137 5.0702992 -3.21203935 2.49825283 0 0 Z " fill="#F7E1E3" transform="translate(86,132)"/>
<path d="M0 0 C0.66 0.66 1.32 1.32 2 2 C1.875 3.9375 1.875 3.9375 1 6 C-1.0625 7.75 -1.0625 7.75 -3 9 C-3 8.01 -3 7.02 -3 6 C-3.66 5.67 -4.32 5.34 -5 5 C-3.35 3.35 -1.7 1.7 0 0 Z " fill="#2B4968" transform="translate(37,72)"/>
<path d="M0 0 C1.32 0.66 2.64 1.32 4 2 C-0.75 6.875 -0.75 6.875 -3 8 C-3.75 6.25 -3.75 6.25 -4 4 C-2.0625 1.75 -2.0625 1.75 0 0 Z " fill="#1F3F5F" transform="translate(42,68)"/>
<path d="M0 0 C2.3125 1.75 2.3125 1.75 3.3125 3.75 C2.6525 3.75 1.9925 3.75 1.3125 3.75 C0.9825 4.41 0.6525 5.07 0.3125 5.75 C-0.285625 5.29625 -0.88375 4.8425 -1.5 4.375 C-3.19340652 3.11704087 -4.93227086 1.92015276 -6.6875 0.75 C-3.88080644 -1.22508065 -3.21066414 -1.49333216 0 0 Z " fill="#223D60" transform="translate(98.6875,69.25)"/>
<path d="M0 0 C0 3 0 3 -2.5 5.6875 C-3.325 6.450625 -4.15 7.21375 -5 8 C-6.5 6.625 -6.5 6.625 -8 5 C-8 4.34 -8 3.68 -8 3 C-6.865625 2.690625 -5.73125 2.38125 -4.5625 2.0625 C-1.21224901 1.37075469 -1.21224901 1.37075469 0 0 Z " fill="#DAE7F1" transform="translate(44,116)"/>
<path d="M0 0 C0.99 0 1.98 0 3 0 C2.65660347 2.57547398 2.39993284 3.68894113 0.3125 5.3125 C-2.72203131 6.21465796 -4.94880471 5.69345348 -8 5 C-8 4.67 -8 4.34 -8 4 C-4.535 3.505 -4.535 3.505 -1 3 C-0.67 2.01 -0.34 1.02 0 0 Z " fill="#D0D7E1" transform="translate(29,76)"/>
<path d="M0 0 C0.66 0.66 1.32 1.32 2 2 C1.64700993 5.44165321 0.95418308 7.06872538 -1 10 C-1.66 10 -2.32 10 -3 10 C-2.69201674 8.51988629 -2.378482 7.04092675 -2.0625 5.5625 C-1.88847656 4.73878906 -1.71445312 3.91507812 -1.53515625 3.06640625 C-1 1 -1 1 0 0 Z " fill="#FCE9EC" transform="translate(46,111)"/>
<path d="M0 0 C3.36720387 1.39332574 4.9859524 2.9789286 7 6 C3 6 3 6 1.25 4.6875 C0 3 0 3 0 0 Z " fill="#2C4B69" transform="translate(102,73)"/>
<path d="M0 0 C2.25 0.25 2.25 0.25 4 1 C1.03 3.475 1.03 3.475 -2 6 C-2.66 5.34 -3.32 4.68 -4 4 C-2.25 1.9375 -2.25 1.9375 0 0 Z " fill="#FCF4F6" transform="translate(34,71)"/>
<path d="M0 0 C2.475 0.99 2.475 0.99 5 2 C4.67 3.32 4.34 4.64 4 6 C3.34 6 2.68 6 2 6 C1.34 4.02 0.68 2.04 0 0 Z " fill="#D5E3EC" transform="translate(18,87)"/>
<path d="M0 0 C-0.33 0.99 -0.66 1.98 -1 3 C-4.63 3.33 -8.26 3.66 -12 4 C-8.36043372 1.57362248 -4.44144233 0 0 0 Z " fill="#CD6165" transform="translate(65,30)"/>
</svg>
