<svg width="391" height="240" viewBox="0 0 391 240" fill="none" xmlns="http://www.w3.org/2000/svg">
<g id="Group 331">
<g id="Group 3">
<mask id="mask0_0_5290" style="mask-type:alpha" maskUnits="userSpaceOnUse" x="0" y="14" width="391" height="226">
<path id="Clip 2" fill-rule="evenodd" clip-rule="evenodd" d="M0 14.3892H390.123V239.044H0V14.3892Z" fill="white"/>
</mask>
<g mask="url(#mask0_0_5290)">
<path id="Fill 1" fill-rule="evenodd" clip-rule="evenodd" d="M382.641 139.693C377.271 129.221 375.492 117.203 377.997 105.704C378.911 101.51 379.393 97.1551 379.393 92.6869V92.6863C379.393 87.2967 378.693 82.0702 377.378 77.0931C374.939 67.8591 375.36 58.1861 378.194 49.0656C378.973 46.5576 379.393 43.8912 379.393 41.1271C379.393 26.3602 367.422 14.3892 352.655 14.3892H177.73C170.894 14.3892 164.659 16.9552 159.933 21.1759C152.434 27.8716 142.862 31.7815 132.809 31.7815H60.9052C27.2683 31.7815 -0.000244141 59.0494 -0.000244141 92.6863V92.6869C-0.000244141 108.526 6.04734 122.951 15.9579 133.783C22.6206 141.065 25.9767 150.849 24.5148 160.61C24.0178 163.931 23.7598 167.33 23.7598 170.79C23.7598 208.485 54.3184 239.044 92.0143 239.044H321.869C359.564 239.044 390.123 208.485 390.123 170.79C390.123 159.589 387.424 149.018 382.641 139.693" fill="#F9F7E5"/>
</g>
</g>
<path id="Fill 4" fill-rule="evenodd" clip-rule="evenodd" d="M311.947 140.128C311.119 137.123 309.455 134.531 307.262 132.827C304.979 131.054 302.396 130.443 299.988 131.107C296.394 132.098 294.075 135.769 293.818 140.169L295.883 141.539C295.686 137.462 297.499 133.954 300.542 133.116C301.543 132.84 302.6 132.877 303.648 133.211C304.442 133.463 305.23 133.886 305.983 134.472C307.824 135.902 309.229 138.107 309.939 140.682C311.374 145.887 309.493 150.962 305.747 151.994C303.988 152.479 302.056 151.997 300.305 150.638C300.086 150.468 299.874 150.286 299.668 150.095L299.352 152.525C300.21 153.143 301.105 153.6 302.014 153.89C303.44 154.344 304.9 154.389 306.301 154.003C311.155 152.665 313.688 146.44 311.947 140.128Z" fill="#EAE5C1"/>
<path id="Fill 6" fill-rule="evenodd" clip-rule="evenodd" d="M200.817 173.644L107.953 238.575L12.4367 101.966L105.299 37.0356L200.817 173.644Z" fill="#FFFEF2"/>
<path id="Fill 8" fill-rule="evenodd" clip-rule="evenodd" d="M61.2881 62.8372L46.6697 73.0586L115.741 221.358L144.868 207.792L211.117 161.47L122.288 34.4255L61.2881 62.8372Z" fill="#EAE5C1"/>
<path id="Fill 10" fill-rule="evenodd" clip-rule="evenodd" d="M219.395 172.58L116.678 220.421L46.2999 69.3177L149.016 21.4763L219.395 172.58Z" fill="#FFFEF2"/>
<path id="Fill 12" fill-rule="evenodd" clip-rule="evenodd" d="M287.2 107.755L249.807 15.315C246.872 8.06032 238.612 4.55836 231.357 7.49272L82.242 67.8121C74.9873 70.7465 71.4854 79.0064 74.4197 86.2611L111.813 178.701C114.748 185.956 123.008 189.458 130.262 186.524L279.377 126.204C286.632 123.27 290.134 115.01 287.2 107.755Z" fill="#EAE5C1"/>
<g id="Group 16">
<mask id="mask1_0_5290" style="mask-type:alpha" maskUnits="userSpaceOnUse" x="75" y="0" width="216" height="182">
<path id="Clip 15" fill-rule="evenodd" clip-rule="evenodd" d="M75.4317 0.659912H290.287V181.766H75.4317V0.659912Z" fill="white"/>
</mask>
<g mask="url(#mask1_0_5290)">
<path id="Fill 14" fill-rule="evenodd" clip-rule="evenodd" d="M281.427 120.409L132.312 180.729C125.058 183.663 116.798 180.161 113.863 172.906L76.4697 80.4659C73.5347 73.2112 77.0366 64.9513 84.292 62.0163L233.407 1.69755C240.662 -1.23681 248.922 2.26515 251.856 9.51987L289.25 101.959C292.184 109.214 288.682 117.474 281.427 120.409Z" fill="#00305B"/>
</g>
</g>
<path id="Fill 17" fill-rule="evenodd" clip-rule="evenodd" d="M279.748 116.845L131.807 176.689C126.814 178.709 121.13 176.299 119.11 171.306L82.8285 81.6143C80.8089 76.6214 83.2192 70.9368 88.2114 68.9166L236.153 9.07305C241.146 7.05345 246.831 9.46377 248.85 14.4567L285.132 104.148C287.151 109.141 284.741 114.826 279.748 116.845Z" fill="#FFFEF2"/>
<path id="Fill 19" fill-rule="evenodd" clip-rule="evenodd" d="M138.934 127.504C164.219 122.822 155.791 77.8721 190.439 66.6343C225.089 55.3971 217.597 27.3029 241.945 23.5574L270.975 92.8547L119.269 158.407C119.269 158.407 113.65 132.186 138.934 127.504Z" fill="#F9F7E5"/>
<path id="Fill 21" fill-rule="evenodd" clip-rule="evenodd" d="M201.389 80.1561L201.701 90.1881C201.728 91.0725 201.348 91.9199 200.668 92.4862C199.878 93.1442 199.5 94.1738 199.675 95.1863L202.056 108.926C202.056 108.926 203.24 114.693 196.998 117.255L187.185 121.465L163.394 99.0816L193.336 86.2373L197.471 77.7339L201.389 80.1561Z" fill="#111E35"/>
<path id="Fill 23" fill-rule="evenodd" clip-rule="evenodd" d="M220.264 98.5476L219.808 98.5746C219.806 98.5337 219.548 94.513 217.801 93.028C217.088 92.4241 215.772 91.9812 214.249 91.4684C211.992 90.7094 209.184 89.7643 207.171 87.8384C205.314 86.0617 204.933 84.5708 204.451 82.6825C204.03 81.0318 203.552 79.1614 201.961 76.5181L202.353 76.2825C203.978 78.9832 204.486 80.9718 204.894 82.5696C205.358 84.3866 205.724 85.8221 207.487 87.5084C209.426 89.3637 212.181 90.291 214.394 91.0355C215.962 91.5635 217.317 92.0189 218.096 92.6802C219.993 94.2912 220.254 98.3747 220.264 98.5476Z" fill="black"/>
<path id="Fill 25" fill-rule="evenodd" clip-rule="evenodd" d="M196.899 98.2225L195.944 98.6324L194.575 95.4413L195.53 95.0314C195.882 94.8803 196.291 95.0439 196.442 95.3964L197.263 97.3104C197.415 97.6628 197.251 98.0714 196.899 98.2225Z" fill="#1A3357"/>
<path id="Fill 27" fill-rule="evenodd" clip-rule="evenodd" d="M151.509 131.806C153.202 134.898 157.095 136.038 160.187 134.344C161.709 133.51 169.604 128.353 176.906 122.978C181.023 119.947 184.234 117.383 186.448 115.356C187.721 114.19 188.658 113.205 189.232 112.43C189.986 111.409 189.947 110.978 189.856 110.812C189.71 110.546 189.165 110.457 188.319 110.562C187.446 110.67 186.256 110.974 184.682 111.491C181.724 112.462 177.902 114.023 173.855 115.677C172.455 116.248 171.007 116.84 169.588 117.409C165.684 118.975 161.767 120.332 158.908 121.322C156.442 122.175 154.661 122.791 154.047 123.129C152.548 123.949 151.459 125.303 150.98 126.942C150.501 128.581 150.689 130.308 151.509 131.806ZM159.822 135.056C156.607 136.434 152.801 135.166 151.087 132.037C150.205 130.427 150.004 128.569 150.519 126.807C151.034 125.045 152.205 123.589 153.816 122.707C154.466 122.352 156.264 121.729 158.75 120.867C161.606 119.879 165.516 118.524 169.409 116.964C170.827 116.394 172.274 115.803 173.674 115.232C183.376 111.268 189.37 108.923 190.277 110.581C190.578 111.131 190.541 112.259 186.772 115.71C184.546 117.749 181.322 120.324 177.192 123.364C170.009 128.65 162.138 133.823 160.418 134.765C160.222 134.873 160.022 134.969 159.822 135.056Z" fill="#1A2846"/>
<path id="Fill 29" fill-rule="evenodd" clip-rule="evenodd" d="M178.497 97.5578L178.142 97.6878C176.999 94.5627 179.105 92.8137 179.126 92.7959L179.364 93.0896C179.285 93.1536 177.449 94.6941 178.497 97.5578Z" fill="#1A3357"/>
<path id="Fill 31" fill-rule="evenodd" clip-rule="evenodd" d="M178.152 103.561L176.415 104.133L175.396 101.039L177.133 100.467L178.152 103.561Z" fill="#1A2846"/>
<path id="Fill 33" fill-rule="evenodd" clip-rule="evenodd" d="M178.448 102.573L181.122 101.692L179.543 96.8979L176.869 97.7784L178.448 102.573Z" fill="#1A3357"/>
<path id="Fill 35" fill-rule="evenodd" clip-rule="evenodd" d="M176.775 98.1757L179.855 97.1613L179.691 96.6663L176.612 97.6807L176.775 98.1757Z" fill="#1A3357"/>
<path id="Fill 37" fill-rule="evenodd" clip-rule="evenodd" d="M177.612 102.16L181.549 100.864L180.703 98.2939L176.766 99.5902L177.612 102.16Z" fill="#1A3357"/>
<path id="Fill 39" fill-rule="evenodd" clip-rule="evenodd" d="M180.869 102.323L185.345 100.849L184.521 98.3481L180.045 99.8219L180.869 102.323Z" fill="#1A2846"/>
<path id="Fill 41" fill-rule="evenodd" clip-rule="evenodd" d="M179.782 104.504L181.197 104.038C182.122 103.733 182.625 102.735 182.321 101.809L181.692 99.9019L176.925 101.472L177.554 103.379C177.858 104.305 178.856 104.809 179.782 104.504Z" fill="#1A3357"/>
<path id="Fill 43" fill-rule="evenodd" clip-rule="evenodd" d="M131.617 116.252L133.232 118.012C133.232 118.012 136.152 113.101 136.088 113.08C136.059 113.071 135.154 112.381 134.202 112.268C133.094 112.138 131.917 112.583 131.917 112.583L131.617 116.252Z" fill="#1A2846"/>
<path id="Fill 45" fill-rule="evenodd" clip-rule="evenodd" d="M154.804 101.222C152.564 101.546 150.334 102.16 148.163 103.091C139.332 106.879 133.15 113.895 131.764 122.931C131.692 123.4 132.154 123.79 132.568 123.613L135.398 122.398C137.492 121.501 139.218 119.894 140.297 117.816C142.423 113.719 146.039 110.633 150.576 108.687C152.779 107.742 154.922 106.904 157.191 106.757L154.804 101.222Z" fill="#EB660C"/>
<path id="Fill 47" fill-rule="evenodd" clip-rule="evenodd" d="M188.215 111.771L199.787 107.394L193.366 90.4177L181.793 94.7955L188.215 111.771Z" fill="#1A2846"/>
<path id="Fill 49" fill-rule="evenodd" clip-rule="evenodd" d="M181.943 98.0217L195.389 92.9351L194.616 90.8911C194.307 90.0747 193.395 89.6635 192.578 89.9724L182.089 93.9403C181.272 94.2492 180.861 95.1613 181.17 95.9777L181.943 98.0217Z" fill="#1A2846"/>
<path id="Fill 51" fill-rule="evenodd" clip-rule="evenodd" d="M190.68 94.7167L195.389 92.9353L194.616 90.8926C194.307 90.0749 193.394 89.6631 192.577 89.9726L190.387 90.8002C189.813 91.018 189.523 91.6596 189.741 92.2344L190.68 94.7167Z" fill="#1A3357"/>
<path id="Fill 53" fill-rule="evenodd" clip-rule="evenodd" d="M186.539 96.2771L181.931 98.0202L181.152 95.961C180.846 95.1532 181.254 94.2503 182.062 93.944L184.178 93.1435C184.746 92.929 185.381 93.2154 185.596 93.7837L186.539 96.2771Z" fill="#1A3357"/>
<path id="Fill 55" fill-rule="evenodd" clip-rule="evenodd" d="M181.943 98.0217L195.389 92.9351L195.249 92.5662L181.803 97.6521L181.943 98.0217Z" fill="#1D3A6B"/>
<path id="Fill 57" fill-rule="evenodd" clip-rule="evenodd" d="M182.271 98.6656L195.568 93.6351L195.429 93.2661L182.131 98.296L182.271 98.6656Z" fill="#1D3A6B"/>
<path id="Fill 59" fill-rule="evenodd" clip-rule="evenodd" d="M182.599 99.3094L195.749 94.3349L195.609 93.9653L182.46 98.9398L182.599 99.3094Z" fill="#1D3A6B"/>
<path id="Fill 61" fill-rule="evenodd" clip-rule="evenodd" d="M182.928 99.953L195.929 95.0347L195.789 94.6658L182.788 99.5834L182.928 99.953Z" fill="#1D3A6B"/>
<path id="Fill 63" fill-rule="evenodd" clip-rule="evenodd" d="M183.256 100.597L196.109 95.7347L195.969 95.3657L183.116 100.227L183.256 100.597Z" fill="#1D3A6B"/>
<path id="Fill 65" fill-rule="evenodd" clip-rule="evenodd" d="M183.585 101.241L196.289 96.4346L196.149 96.0657L183.445 100.871L183.585 101.241Z" fill="#1D3A6B"/>
<path id="Fill 67" fill-rule="evenodd" clip-rule="evenodd" d="M183.913 101.885L196.469 97.1346L196.329 96.7656L183.773 101.515L183.913 101.885Z" fill="#1D3A6B"/>
<path id="Fill 69" fill-rule="evenodd" clip-rule="evenodd" d="M184.241 102.528L196.648 97.8349L196.509 97.4653L184.101 102.159L184.241 102.528Z" fill="#1D3A6B"/>
<path id="Fill 71" fill-rule="evenodd" clip-rule="evenodd" d="M184.57 103.172L196.829 98.5342L196.689 98.1653L184.43 102.802L184.57 103.172Z" fill="#1D3A6B"/>
<path id="Fill 73" fill-rule="evenodd" clip-rule="evenodd" d="M180.038 120.688L183.327 117.237C183.327 117.237 178.538 107.501 177.048 104.03C174.972 99.1893 175.498 95.5178 177.955 94.2737C179.294 93.5952 160.671 102.662 153.425 106.191C152.783 106.503 153.026 107.47 153.739 107.443L157.375 107.303C160.413 106.994 163.455 107.865 165.87 109.733L180.038 120.688Z" fill="#1A2846"/>
<path id="Fill 75" fill-rule="evenodd" clip-rule="evenodd" d="M155.259 107.004L160.626 107.163C162.272 107.332 164.097 107.615 165.161 108.432L165.167 108.436L183.224 123.081C184.07 123.752 185.208 123.891 186.192 123.442L201.068 116.665C202.333 116.089 203.103 114.772 202.986 113.388L200.87 80.552L155.137 106.512C154.906 106.644 154.994 106.996 155.259 107.004ZM186.347 123.968C185.192 124.463 183.872 124.288 182.884 123.505L164.828 108.861C163.745 108.032 161.535 107.803 160.58 107.704L153.588 107.499C153.241 107.488 153.128 107.029 153.429 106.858L201.356 79.6511L203.528 113.347C203.664 114.955 202.766 116.488 201.294 117.159L186.417 123.936C186.394 123.947 186.37 123.958 186.347 123.968Z" fill="#1A2846"/>
<path id="Fill 77" fill-rule="evenodd" clip-rule="evenodd" d="M208.441 73.0282L204.82 64.5855C205.339 64.3637 206.95 66.1866 207.85 68.2841C208.509 69.8206 208.96 72.8058 208.441 73.0282Z" fill="#EB660C"/>
<path id="Fill 79" fill-rule="evenodd" clip-rule="evenodd" d="M203.048 64.9033C200.886 66.2491 199.941 68.928 200.936 71.2499C201.932 73.5718 204.525 74.732 206.99 74.0938L203.048 64.9033Z" fill="#174077"/>
<path id="Fill 81" fill-rule="evenodd" clip-rule="evenodd" d="M208.349 73.5108L206.99 74.0935L203.048 64.903L204.406 64.3209C204.643 64.2193 204.916 64.3288 205.018 64.5651L208.593 72.9003C208.694 73.1359 208.584 73.4098 208.349 73.5108Z" fill="#1A3357"/>
<path id="Fill 83" fill-rule="evenodd" clip-rule="evenodd" d="M207.773 72.1684L206.414 72.7512C204.192 73.3267 201.87 72.437 200.703 70.5547C200.764 70.789 200.838 71.0213 200.936 71.2497C201.932 73.5715 204.525 74.7318 206.99 74.0936L208.349 73.5108C208.584 73.4092 208.694 73.1359 208.592 72.8997L208.017 71.5572C208.118 71.7935 208.009 72.0667 207.773 72.1684Z" fill="#1A2846"/>
<path id="Fill 85" fill-rule="evenodd" clip-rule="evenodd" d="M204.407 64.3206L203.048 64.9034C200.887 66.2492 199.94 68.9274 200.936 71.25C201.052 71.5186 201.19 71.7701 201.345 72.0063C200.854 69.9003 201.812 67.6682 203.723 66.4788L205.082 65.8954C205.318 65.7944 205.591 65.9033 205.693 66.1396L205.017 64.5648C204.916 64.3286 204.642 64.2197 204.407 64.3206Z" fill="#1A2846"/>
<path id="Fill 87" fill-rule="evenodd" clip-rule="evenodd" d="M237.645 99.9116C236.587 99.3447 231.682 97.8934 230.699 97.5376C229.716 97.1825 229.531 96.3437 229.966 95.5134C230.4 94.6831 232.856 91.228 234.28 91.1376C235.704 91.0472 236.413 91.5336 236.748 91.8497C237.084 92.1659 239.689 94.9834 239.223 99.2391C239.223 99.2391 238.704 100.479 237.645 99.9116ZM237.457 102.219C237.902 103.575 237.609 104.383 237.387 104.787C237.166 105.191 235.091 108.42 230.854 109.035C230.854 109.035 229.525 108.844 229.808 107.677C230.091 106.51 230.266 101.398 230.364 100.357C230.461 99.317 231.227 98.9269 232.14 99.1401C233.052 99.352 237.013 100.863 237.457 102.219ZM227.724 108.298C226.58 109.151 225.72 109.13 225.268 109.048C224.814 108.966 221.093 108.026 219.162 104.204C219.162 104.204 218.921 102.883 220.118 102.781C221.314 102.678 226.217 101.219 227.234 100.981C228.252 100.743 228.865 101.344 228.953 102.277C229.042 103.21 228.868 107.446 227.724 108.298ZM217.575 99.0352C217.509 98.5791 217.213 94.7531 220.219 91.7039C220.219 91.7039 221.394 91.0544 221.873 92.156C222.352 93.2569 225.299 97.438 225.849 98.3263C226.4 99.2147 226.025 99.9875 225.169 100.369C224.313 100.75 220.242 101.937 219.07 101.125C217.897 100.312 217.643 99.4912 217.575 99.0352ZM223.108 90.5601C223.469 89.1794 224.154 88.6593 224.558 88.4402C224.963 88.2211 228.457 86.6311 232.351 88.4098C232.351 88.4098 233.365 89.2916 232.495 90.1186C231.624 90.9462 228.706 95.1471 228.06 95.9688C227.415 96.7905 226.56 96.7034 225.908 96.0302C225.256 95.3563 222.746 91.9402 223.108 90.5601ZM223.787 87.6053C217.733 90.2017 214.93 97.2149 217.527 103.268C220.124 109.322 227.137 112.124 233.19 109.528C239.244 106.931 242.046 99.9182 239.45 93.8647C236.853 87.8112 229.84 85.0082 223.787 87.6053Z" fill="#1A2846"/>
<path id="Fill 89" fill-rule="evenodd" clip-rule="evenodd" d="M225.219 104.622C225.476 104.754 225.765 104.488 225.653 104.222C225.34 103.477 225.075 102.59 225.093 101.745C225.116 100.596 225.316 99.6453 225.497 98.9978C225.105 99.2717 224.727 99.5674 224.441 99.8611C223.404 100.925 223.622 102.869 223.725 103.489C223.736 103.563 223.775 103.63 223.831 103.679C224.257 104.051 224.724 104.366 225.219 104.622ZM231.623 92.1873C231.366 92.054 231.077 92.3206 231.189 92.5879C231.503 93.3331 231.767 94.2194 231.749 95.0636C231.726 96.2126 231.526 97.1637 231.345 97.8112C231.737 97.5373 232.115 97.2416 232.401 96.9485C233.438 95.8833 233.22 93.9403 233.118 93.3199C233.106 93.2459 233.068 93.1793 233.011 93.1304C232.585 92.7582 232.118 92.4427 231.623 92.1873ZM235.34 98.1365C235.383 98.0765 235.403 98.0032 235.398 97.9286C235.36 97.3769 235.254 96.8245 235.079 96.2819C234.989 96.0047 234.598 95.9896 234.488 96.2595C234.184 97.0066 233.745 97.8197 233.137 98.4025C232.31 99.1952 231.499 99.7258 230.913 100.055C231.384 100.139 231.859 100.199 232.268 100.194C233.758 100.177 234.978 98.6434 235.34 98.1365ZM233.506 103.116C233.579 103.103 233.646 103.065 233.695 103.009C234.065 102.583 234.38 102.116 234.634 101.621C234.766 101.363 234.5 101.074 234.234 101.185C233.491 101.498 232.605 101.762 231.763 101.743C230.615 101.717 229.665 101.516 229.018 101.334C229.292 101.726 229.588 102.105 229.881 102.392C230.946 103.432 232.886 103.217 233.506 103.116ZM226.534 98.3339L227.349 98.6018C227.349 98.6018 227.201 99.0638 227.04 99.6902L227.804 99.3034C227.804 99.3034 228.022 99.7331 228.354 100.294L228.62 99.4783C228.62 99.4783 229.081 99.6275 229.707 99.7892L229.319 99.0242C229.319 99.0242 229.748 98.8058 230.308 98.4751L229.493 98.2072C229.493 98.2072 229.641 97.7452 229.802 97.1188L229.038 97.5056C229.038 97.5056 228.82 97.0759 228.488 96.5149L228.222 97.3313C228.222 97.3313 227.761 97.1815 227.135 97.0198L227.523 97.7854C227.523 97.7854 227.094 98.0026 226.534 98.3339ZM223.336 93.6934C223.263 93.7053 223.197 93.7436 223.148 93.7997C222.777 94.2267 222.463 94.6927 222.208 95.1883C222.076 95.4457 222.342 95.7355 222.609 95.6233C223.352 95.3117 224.237 95.0477 225.08 95.0662C226.227 95.092 227.178 95.2926 227.824 95.4754C227.551 95.0821 227.254 94.7039 226.961 94.4168C225.896 93.3766 223.956 93.5924 223.336 93.6934ZM228.143 91.4758C228.083 91.4323 228.01 91.4118 227.935 91.4171C227.384 91.454 226.833 91.559 226.292 91.7339C226.015 91.823 226.001 92.215 226.27 92.3259C227.017 92.6315 227.829 93.0717 228.412 93.6815C229.205 94.5105 229.736 95.3243 230.065 95.911C230.148 95.4398 230.208 94.9646 230.202 94.5554C230.183 93.0625 228.65 91.8395 228.143 91.4758ZM222.354 100.55C222.659 99.8024 223.098 98.9893 223.705 98.4065C224.532 97.6132 225.343 97.0832 225.929 96.7545C225.458 96.6707 224.983 96.61 224.575 96.6146C223.084 96.6317 221.865 98.1656 221.502 98.6725C221.459 98.7325 221.439 98.8058 221.444 98.8804C221.483 99.4321 221.588 99.9845 221.763 100.526C221.852 100.804 222.244 100.819 222.354 100.55ZM228.699 105.334C228.759 105.377 228.833 105.397 228.906 105.392C229.457 105.354 230.009 105.249 230.55 105.075C230.827 104.986 230.842 104.594 230.572 104.483C229.826 104.178 229.013 103.737 228.43 103.127C227.637 102.299 227.106 101.485 226.777 100.898C226.694 101.369 226.635 101.844 226.64 102.254C226.659 103.746 228.192 104.97 228.699 105.334ZM236.553 94.2841C238.832 98.7853 237.039 104.279 232.547 106.554C228.056 108.83 222.568 107.025 220.289 102.525C218.01 98.0237 219.803 92.5305 224.295 90.2548C228.785 87.9791 234.274 89.7836 236.553 94.2841Z" fill="#1A3357"/>
<path id="Fill 91" fill-rule="evenodd" clip-rule="evenodd" d="M218.916 94.8651L220.667 94.9865C221.193 95.0228 221.59 95.4789 221.553 96.0043L221.319 99.3788C221.283 99.9042 220.827 100.301 220.301 100.265L218.55 100.144C218.024 100.107 217.628 99.6508 217.664 99.1254L217.898 95.7508C217.935 95.2255 218.39 94.8288 218.916 94.8651Z" fill="#1A2846"/>
<path id="Fill 93" fill-rule="evenodd" clip-rule="evenodd" d="M219.13 97.7835C218.906 98.0007 218.776 98.3148 218.813 98.6673C218.859 99.1022 219.186 99.4784 219.61 99.5847C220.278 99.7517 220.903 99.2758 220.948 98.6211C220.966 98.3564 220.886 98.1089 220.739 97.9122C220.591 97.7136 220.591 97.4318 220.77 97.2588C220.993 97.0417 221.123 96.7275 221.086 96.3751C221.041 95.9408 220.714 95.564 220.291 95.4577C219.622 95.2907 218.998 95.7666 218.952 96.422C218.934 96.686 219.014 96.9341 219.161 97.1308C219.309 97.3295 219.308 97.6113 219.13 97.7835Z" fill="#174077"/>
<path id="Fill 95" fill-rule="evenodd" clip-rule="evenodd" d="M193.756 67.1569L193.326 67.2948L192.626 65.1056C192.46 64.5875 192.212 64.1044 191.887 63.6694C188.217 58.7445 188.212 58.7174 188.198 58.6448L188.42 58.6013L188.616 58.4897C188.695 58.6171 190.054 60.4526 192.25 63.3995C192.604 63.874 192.876 64.402 193.056 64.9676L193.756 67.1569Z" fill="#1A2846"/>
<path id="Fill 97" fill-rule="evenodd" clip-rule="evenodd" d="M192.537 64.9202L192.438 64.8377C192.398 64.8054 192.351 64.7915 192.304 64.7862C192.288 64.7829 192.271 64.7829 192.255 64.7823H192.254C192.23 64.7809 192.206 64.7776 192.181 64.7829L189.686 65.3353C189.451 65.3875 189.145 65.3855 188.973 65.3393C188.948 65.3327 188.905 65.3142 188.863 65.2944C188.858 65.2641 188.861 65.233 188.85 65.202C188.755 64.936 188.463 64.7968 188.196 64.8918C187.93 64.9862 187.791 65.2786 187.885 65.5452C187.946 65.7155 188.09 65.8251 188.253 65.8633C188.261 65.8673 188.266 65.8732 188.275 65.8772L188.541 65.9214C188.826 65.9689 189.119 65.967 189.405 65.9155L190.763 65.6693C191.029 65.6106 191.219 65.9208 191.047 66.1306L190.291 67.0474C190.289 67.0586 190.288 67.0705 190.286 67.0824C190.693 67.2322 191.036 67.5391 191.223 67.9595L192.662 66.2184C192.986 65.8257 192.93 65.2443 192.537 64.9202Z" fill="#1A2846"/>
<path id="Fill 99" fill-rule="evenodd" clip-rule="evenodd" d="M221.672 82.6568C217.435 84.4738 214.159 87.8325 212.449 92.1133C210.738 96.3941 210.797 101.085 212.614 105.322C214.431 109.558 217.789 112.834 222.07 114.545C226.352 116.255 231.042 116.197 235.279 114.379C239.516 112.562 242.791 109.204 244.502 104.923C246.213 100.642 246.154 95.9512 244.337 91.7147C242.519 87.4781 239.161 84.2025 234.88 82.4918C230.599 80.7811 225.908 80.8398 221.672 82.6568ZM235.369 114.589C231.077 116.43 226.323 116.49 221.986 114.756C217.649 113.023 214.246 109.704 212.405 105.412C210.563 101.119 210.504 96.3663 212.238 92.0288C213.971 87.6913 217.289 84.289 221.582 82.4476C225.874 80.6062 230.627 80.5468 234.965 82.28C239.302 84.0131 242.705 87.3316 244.546 91.6242C246.387 95.9175 246.447 100.67 244.714 105.007C242.98 109.345 239.661 112.748 235.369 114.589Z" fill="#192846"/>
<path id="Fill 101" fill-rule="evenodd" clip-rule="evenodd" d="M216.016 102.815C213.58 95.9638 217.16 88.4345 224.011 85.9991C230.862 83.5637 238.391 87.1429 240.827 93.9943C243.262 100.845 239.683 108.374 232.831 110.81C225.98 113.245 218.451 109.666 216.016 102.815ZM244.771 92.5918C244.761 92.5654 244.75 92.5397 244.74 92.5133L245.24 92.3325C245.058 91.8269 244.849 91.3227 244.621 90.8343L244.14 91.0587C243.841 90.4178 243.506 89.8033 243.139 89.2153L243.587 88.9354C243.303 88.482 242.993 88.0332 242.665 87.6016L242.249 87.9177C242.058 87.6656 241.86 87.4214 241.657 87.1818L242.057 86.8432C241.706 86.4307 241.335 86.0308 240.954 85.6552L240.587 86.0281C240.085 85.5364 239.555 85.0797 239.002 84.6547L239.326 84.2343C238.898 83.9049 238.451 83.5921 237.997 83.3037L237.711 83.7538C237.12 83.3796 236.509 83.037 235.877 82.7361L236.104 82.2582C235.62 82.0292 235.117 81.8173 234.609 81.6299L234.427 82.1262C233.771 81.8847 233.1 81.684 232.418 81.5217L232.54 81.0075C232.018 80.8848 231.482 80.7831 230.947 80.7066L230.872 81.2273C230.183 81.1283 229.485 81.0702 228.782 81.055L228.793 80.5323C228.256 80.5204 227.71 80.5336 227.173 80.5706L227.209 81.0953C226.517 81.1448 225.823 81.2313 225.13 81.3659L225.031 80.8498C224.502 80.9508 223.972 81.0781 223.455 81.2273L223.602 81.7375C223.27 81.8338 222.939 81.9375 222.609 82.0549C222.275 82.1737 221.949 82.3044 221.627 82.441L221.419 81.9513C220.924 82.1619 220.432 82.3988 219.957 82.6549L220.207 83.1182C219.584 83.4515 218.991 83.8231 218.424 84.223L218.12 83.7934C217.69 84.0976 217.266 84.4257 216.842 84.7854L217.179 85.186C216.644 85.6414 216.139 86.1271 215.667 86.6393L215.281 86.2816C214.916 86.6756 214.565 87.0927 214.235 87.5204L214.656 87.8438C214.23 88.4008 213.837 88.9803 213.481 89.5822L213.024 89.3123C212.749 89.7769 212.493 90.2594 212.264 90.7445L212.742 90.9715C212.443 91.6032 212.185 92.2546 211.963 92.9192L211.459 92.7516C211.289 93.2644 211.14 93.7897 211.019 94.3125L211.533 94.4326C211.372 95.1117 211.249 95.8014 211.171 96.4997L210.653 96.4423C210.594 96.9782 210.558 97.5227 210.548 98.0599L211.071 98.0705C211.057 98.7648 211.087 99.4638 211.159 100.165L210.636 100.218C210.69 100.755 210.769 101.294 210.871 101.821L211.388 101.721C211.521 102.399 211.7 103.076 211.919 103.748L211.41 103.913C211.462 104.075 211.517 104.236 211.574 104.397C211.698 104.744 211.833 105.09 211.979 105.431L212.468 105.222C212.746 105.873 213.06 106.498 213.406 107.098L212.949 107.364C213.218 107.828 213.513 108.287 213.825 108.728L214.255 108.423C214.661 108.998 215.097 109.547 215.564 110.061L215.177 110.411C215.541 110.813 215.924 111.201 216.318 111.563L216.675 111.175C217.192 111.651 217.735 112.092 218.303 112.497L217.993 112.929C218.43 113.243 218.888 113.542 219.352 113.815L219.621 113.357C220.225 113.711 220.85 114.028 221.491 114.308L221.279 114.796C221.77 115.01 222.28 115.205 222.793 115.375L222.96 114.87C223.623 115.091 224.298 115.274 224.986 115.414L224.882 115.928C225.412 116.034 225.952 116.118 226.485 116.176L226.541 115.658C227.233 115.733 227.933 115.763 228.636 115.755L228.642 116.281C229.183 116.274 229.727 116.243 230.261 116.188L230.207 115.663C230.896 115.592 231.587 115.478 232.275 115.32L232.392 115.838C232.917 115.719 233.443 115.574 233.955 115.408L233.79 114.899C233.938 114.851 234.086 114.806 234.234 114.754C234.751 114.57 235.253 114.361 235.742 114.134L235.966 114.615C236.452 114.39 236.936 114.136 237.403 113.864L237.137 113.406C237.747 113.052 238.332 112.668 238.886 112.249L239.202 112.666C239.466 112.465 239.727 112.257 239.982 112.039C240.141 111.905 240.296 111.769 240.448 111.631L240.097 111.244C240.617 110.772 241.102 110.267 241.557 109.739L241.958 110.085C242.312 109.677 242.649 109.248 242.962 108.811L242.529 108.501C242.937 107.93 243.31 107.338 243.645 106.724L244.112 106.98C244.371 106.507 244.61 106.016 244.824 105.522L244.335 105.31C244.614 104.669 244.854 104.011 245.054 103.34L245.561 103.49C245.715 102.972 245.845 102.442 245.95 101.916L245.435 101.813C245.573 101.13 245.667 100.436 245.721 99.735L246.246 99.7759C246.287 99.24 246.304 98.6949 246.297 98.1556L245.771 98.1629C245.761 97.4679 245.713 96.7696 245.618 96.0707L246.138 96.0014C246.066 95.4681 245.969 94.9315 245.849 94.4062L245.331 94.5243C245.181 93.8775 244.998 93.232 244.771 92.5918Z" fill="#1A2846"/>
<path id="Fill 103" fill-rule="evenodd" clip-rule="evenodd" d="M231.475 97.3188C230.875 95.6318 229.022 94.7507 227.335 95.3507C225.648 95.9499 224.767 97.8032 225.367 99.4902C225.967 101.176 227.82 102.058 229.507 101.458C231.193 100.858 232.075 99.0051 231.475 97.3188Z" fill="#1A2846"/>
<path id="Fill 105" fill-rule="evenodd" clip-rule="evenodd" d="M223.396 86.7358C220.558 87.9535 218.287 90.1348 216.948 92.9497C215.491 96.014 215.315 99.4625 216.451 102.66C217.588 105.857 219.902 108.42 222.966 109.877C226.03 111.335 229.479 111.511 232.677 110.374C235.874 109.237 238.437 106.924 239.894 103.859C241.351 100.794 241.528 97.3459 240.391 94.1489C238.044 87.5489 230.766 84.0878 224.166 86.4348C223.905 86.5272 223.649 86.6275 223.396 86.7358ZM233.89 111.106C233.616 111.223 233.337 111.333 233.053 111.434C225.869 113.987 217.946 110.221 215.393 103.036C214.155 99.5563 214.347 95.8028 215.933 92.4672C217.518 89.1309 220.306 86.613 223.789 85.3755C230.973 82.8213 238.896 86.5886 241.45 93.7727C242.688 97.2529 242.495 101.006 240.91 104.342C239.453 107.406 236.981 109.78 233.89 111.106Z" fill="#1A2846"/>
<path id="Fill 107" fill-rule="evenodd" clip-rule="evenodd" d="M223.805 87.6844C221.196 88.8031 219.11 90.8069 217.881 93.3927C216.542 96.209 216.38 99.377 217.424 102.315C218.469 105.252 220.594 107.607 223.409 108.945C226.225 110.284 229.394 110.446 232.331 109.402C235.268 108.357 237.623 106.232 238.962 103.416C240.3 100.601 240.462 97.4326 239.418 94.4949C237.262 88.4315 230.575 85.2516 224.512 87.4079C224.272 87.4923 224.036 87.5854 223.805 87.6844ZM233.445 110.074C233.194 110.181 232.937 110.282 232.676 110.375C226.076 112.721 218.798 109.26 216.451 102.66C215.314 99.4628 215.491 96.0143 216.948 92.9499C218.405 89.8848 220.965 87.5715 224.166 86.4344C230.766 84.0881 238.045 87.5491 240.391 94.1491C241.528 97.3461 241.351 100.795 239.894 103.859C238.556 106.674 236.285 108.856 233.445 110.074Z" fill="#174077"/>
<path id="Fill 109" fill-rule="evenodd" clip-rule="evenodd" d="M184.098 120.617L183.283 119.026C182.971 118.417 182.217 118.173 181.608 118.485L180.579 119.012C179.969 119.324 179.726 120.078 180.038 120.687L180.852 122.279C181.165 122.888 181.918 123.132 182.528 122.82L183.557 122.293C184.166 121.981 184.41 121.226 184.098 120.617Z" fill="#1A2846"/>
<path id="Fill 111" fill-rule="evenodd" clip-rule="evenodd" d="M150.244 112.632C145.914 114.489 142.567 117.921 140.818 122.297C139.069 126.672 139.129 131.467 140.987 135.796C142.844 140.126 146.276 143.474 150.652 145.223C155.027 146.971 159.822 146.911 164.152 145.054C168.482 143.197 171.83 139.764 173.578 135.388C175.326 131.014 175.267 126.219 173.409 121.889C171.552 117.558 168.119 114.211 163.744 112.463C159.369 110.714 154.575 110.774 150.244 112.632ZM164.244 145.268C159.856 147.15 154.999 147.211 150.566 145.439C146.133 143.667 142.654 140.276 140.773 135.888C138.891 131.501 138.83 126.643 140.602 122.21C142.373 117.777 145.765 114.299 150.153 112.418C154.54 110.535 159.397 110.475 163.83 112.247C168.264 114.018 171.741 117.41 173.623 121.797C175.505 126.185 175.566 131.042 173.794 135.475C172.023 139.908 168.631 143.386 164.244 145.268Z" fill="#1A2846"/>
<path id="Fill 113" fill-rule="evenodd" clip-rule="evenodd" d="M166.467 130.11C165.393 129.535 160.417 128.063 159.42 127.703C158.423 127.342 158.235 126.491 158.676 125.649C159.116 124.806 161.609 121.301 163.053 121.209C164.497 121.118 165.216 121.611 165.557 121.932C165.897 122.252 168.54 125.111 168.067 129.428C168.067 129.428 167.541 130.685 166.467 130.11ZM166.276 132.451C166.728 133.827 166.43 134.646 166.206 135.056C165.98 135.466 163.876 138.742 159.578 139.366C159.578 139.366 158.229 139.172 158.516 137.989C158.804 136.805 158.981 131.618 159.08 130.562C159.179 129.507 159.955 129.112 160.881 129.327C161.807 129.543 165.825 131.076 166.276 132.451ZM156.402 138.618C155.242 139.483 154.37 139.462 153.91 139.379C153.45 139.295 149.675 138.342 147.716 134.466C147.716 134.466 147.471 133.125 148.686 133.021C149.899 132.917 154.873 131.437 155.906 131.195C156.938 130.953 157.559 131.564 157.649 132.51C157.739 133.456 157.563 137.754 156.402 138.618ZM146.107 129.221C146.039 128.759 145.739 124.877 148.789 121.784C148.789 121.784 149.981 121.125 150.466 122.242C150.952 123.359 153.941 127.601 154.5 128.502C155.058 129.403 154.678 130.187 153.809 130.575C152.941 130.962 148.813 132.165 147.623 131.341C146.433 130.517 146.175 129.684 146.107 129.221ZM151.719 120.623C152.085 119.223 152.78 118.695 153.19 118.472C153.601 118.25 157.146 116.638 161.096 118.442C161.096 118.442 162.125 119.336 161.242 120.176C160.359 121.015 157.398 125.277 156.743 126.111C156.088 126.944 155.221 126.856 154.56 126.173C153.898 125.49 151.353 122.023 151.719 120.623ZM152.299 117.372C146.017 120.066 143.109 127.343 145.804 133.625C148.498 139.906 155.775 142.814 162.056 140.12C168.337 137.425 171.246 130.149 168.551 123.867C165.857 117.585 158.581 114.677 152.299 117.372Z" fill="#1A2846"/>
<path id="Fill 115" fill-rule="evenodd" clip-rule="evenodd" d="M225.492 79.6379C223.817 79.9323 217.183 81.084 213.154 86.5099C208.228 93.1415 209.354 101.212 210.166 104.552C210.24 104.856 210.553 105.02 210.787 104.81C211.019 104.603 211.297 104.287 211.577 103.81C212.111 102.9 210.915 98.7311 214.135 92.8571C214.208 92.7231 214.355 92.6419 214.507 92.6485L217.683 93.0637C217.907 93.0736 218.122 92.9739 218.259 92.7964L220.879 89.3941C221.052 89.1697 221.069 88.8614 220.922 88.6192L219.342 86.3092C219.243 86.1449 219.302 85.9594 219.412 85.8023C221.137 83.3518 224.152 82.3109 225.917 81.4754C226.382 81.2549 226.864 80.7652 227.163 79.8379C227.226 79.6406 226.784 79.4109 225.492 79.6379Z" fill="#EB660C"/>
<path id="Fill 117" fill-rule="evenodd" clip-rule="evenodd" d="M150.892 130.949C152.119 134.4 155.912 136.203 159.364 134.977C162.816 133.75 164.62 129.957 163.392 126.505C162.165 123.053 158.372 121.249 154.921 122.477C151.469 123.704 149.666 127.497 150.892 130.949Z" fill="#174077"/>
<path id="Fill 119" fill-rule="evenodd" clip-rule="evenodd" d="M160.479 131.817C160.351 131.955 160.116 131.856 160.125 131.668C160.151 131.144 160.117 130.544 159.92 130.032C159.65 129.336 159.318 128.799 159.063 128.443C159.364 128.524 159.661 128.621 159.901 128.737C160.772 129.158 161.068 130.393 161.143 130.795C161.152 130.843 161.143 130.892 161.12 130.934C160.941 131.256 160.726 131.551 160.479 131.817ZM153.806 125.637C153.934 125.498 154.17 125.597 154.16 125.785C154.134 126.309 154.168 126.909 154.366 127.421C154.635 128.117 154.967 128.655 155.222 129.01C154.921 128.929 154.624 128.832 154.385 128.716C153.514 128.295 153.217 127.059 153.142 126.658C153.133 126.61 153.142 126.561 153.165 126.519C153.344 126.198 153.56 125.902 153.806 125.637ZM152.849 130.091C152.809 130.064 152.78 130.024 152.767 129.977C152.669 129.631 152.611 129.27 152.598 128.901C152.591 128.711 152.828 128.616 152.955 128.756C153.306 129.146 153.755 129.545 154.256 129.767C154.937 130.069 155.552 130.213 155.983 130.285C155.713 130.44 155.436 130.582 155.185 130.669C154.269 130.988 153.183 130.321 152.849 130.091ZM155.074 132.727C155.026 132.736 154.977 132.727 154.935 132.704C154.614 132.525 154.318 132.31 154.052 132.063C153.914 131.935 154.013 131.699 154.201 131.709C154.725 131.735 155.325 131.701 155.837 131.503C156.533 131.235 157.07 130.902 157.426 130.647C157.346 130.948 157.248 131.245 157.132 131.485C156.711 132.355 155.476 132.652 155.074 132.727ZM158.282 128.267L157.842 128.61C157.842 128.61 158.035 128.86 158.272 129.207L157.719 129.139C157.719 129.139 157.681 129.45 157.602 129.866L157.258 129.426C157.258 129.426 157.01 129.619 156.662 129.856L156.73 129.303C156.73 129.303 156.42 129.265 156.003 129.187L156.443 128.843C156.443 128.843 156.25 128.593 156.013 128.246L156.566 128.313C156.566 128.313 156.604 128.003 156.683 127.587L157.027 128.027C157.027 128.027 157.276 127.834 157.623 127.597L157.555 128.15C157.555 128.15 157.866 128.188 158.282 128.267ZM159.211 124.726C159.259 124.717 159.308 124.726 159.351 124.749C159.671 124.928 159.968 125.143 160.233 125.39C160.371 125.518 160.273 125.753 160.084 125.744C159.56 125.718 158.96 125.752 158.448 125.949C157.751 126.219 157.215 126.551 156.859 126.806C156.94 126.505 157.037 126.208 157.153 125.968C157.575 125.098 158.809 124.801 159.211 124.726ZM155.778 124.433C155.806 124.393 155.846 124.364 155.892 124.351C156.238 124.252 156.598 124.195 156.969 124.182C157.158 124.175 157.253 124.412 157.113 124.538C156.724 124.89 156.324 125.339 156.102 125.84C155.8 126.522 155.656 127.135 155.584 127.567C155.429 127.297 155.287 127.02 155.2 126.769C154.881 125.853 155.549 124.767 155.778 124.433ZM161.331 128.697C160.979 128.308 160.531 127.908 160.029 127.686C159.348 127.384 158.733 127.24 158.303 127.168C158.572 127.013 158.849 126.871 159.1 126.784C160.016 126.465 161.102 127.133 161.436 127.362C161.476 127.389 161.505 127.43 161.518 127.476C161.617 127.822 161.674 128.183 161.688 128.552C161.694 128.742 161.457 128.838 161.331 128.697ZM158.507 133.02C158.479 133.06 158.439 133.089 158.393 133.102C158.047 133.201 157.687 133.258 157.316 133.271C157.127 133.278 157.032 133.042 157.173 132.914C157.561 132.563 157.961 132.114 158.183 131.613C158.485 130.932 158.629 130.318 158.701 129.886C158.856 130.156 158.998 130.433 159.085 130.684C159.404 131.6 158.736 132.686 158.507 133.02ZM151.815 128.075C151.455 131.017 153.549 133.694 156.491 134.054C159.433 134.414 162.11 132.321 162.47 129.379C162.83 126.436 160.737 123.759 157.794 123.399C154.853 123.039 152.175 125.132 151.815 128.075Z" fill="#1A2846"/>
<path id="Fill 121" fill-rule="evenodd" clip-rule="evenodd" d="M196.047 73.4293L193.407 76.7563L201.317 81.9802L203.505 76.8593L205.114 75.6495L196.662 69.2383L194.509 71.4031L196.047 73.4293Z" fill="#174077"/>
<path id="Fill 123" fill-rule="evenodd" clip-rule="evenodd" d="M145.426 132.892C143.125 126.421 146.507 119.31 152.977 117.01C159.448 114.709 166.559 118.09 168.859 124.561C171.16 131.032 167.779 138.143 161.308 140.443C154.837 142.744 147.726 139.363 145.426 132.892ZM173.852 122.786C173.843 122.758 173.832 122.732 173.821 122.705L174.333 122.52C174.146 122.004 173.933 121.489 173.7 120.989L173.208 121.219C172.903 120.564 172.56 119.936 172.185 119.334L172.643 119.048C172.353 118.585 172.035 118.126 171.701 117.685L171.276 118.008C171.08 117.751 170.878 117.501 170.67 117.256L171.079 116.91C170.721 116.488 170.341 116.08 169.952 115.696L169.577 116.077C169.064 115.575 168.522 115.108 167.957 114.674L168.288 114.244C167.851 113.907 167.394 113.587 166.93 113.292L166.638 113.752C166.033 113.37 165.408 113.02 164.763 112.713L164.994 112.224C164.5 111.99 163.987 111.773 163.467 111.582L163.28 112.089C162.611 111.842 161.925 111.637 161.228 111.471L161.352 110.946C160.819 110.821 160.272 110.716 159.724 110.638L159.649 111.17C158.944 111.069 158.23 111.009 157.512 110.995L157.523 110.46C156.974 110.448 156.416 110.462 155.867 110.499L155.904 111.036C155.197 111.085 154.487 111.174 153.778 111.312L153.677 110.784C153.138 110.888 152.596 111.017 152.067 111.17L152.217 111.692C151.878 111.791 151.539 111.896 151.202 112.017C150.861 112.137 150.527 112.271 150.199 112.411L149.985 111.91C149.48 112.125 148.977 112.368 148.492 112.629L148.747 113.103C148.11 113.443 147.505 113.824 146.925 114.232L146.614 113.793C146.174 114.104 145.742 114.439 145.307 114.807L145.653 115.216C145.105 115.682 144.59 116.178 144.107 116.702L143.712 116.336C143.34 116.739 142.98 117.165 142.644 117.602L143.074 117.933C142.638 118.502 142.236 119.094 141.873 119.71L141.406 119.434C141.125 119.909 140.864 120.401 140.629 120.898L141.118 121.129C140.811 121.775 140.549 122.441 140.322 123.12L139.806 122.949C139.633 123.473 139.481 124.009 139.356 124.545L139.882 124.667C139.718 125.361 139.592 126.066 139.513 126.779L138.983 126.721C138.922 127.269 138.886 127.825 138.875 128.374L139.41 128.385C139.396 129.095 139.426 129.81 139.499 130.526L138.964 130.58C139.02 131.129 139.101 131.68 139.206 132.219L139.734 132.116C139.87 132.809 140.052 133.501 140.276 134.189L139.756 134.356C139.809 134.522 139.866 134.687 139.924 134.851C140.05 135.206 140.188 135.559 140.338 135.909L140.838 135.695C141.122 136.36 141.442 136.999 141.797 137.611L141.329 137.883C141.604 138.358 141.906 138.827 142.224 139.277L142.663 138.966C143.079 139.554 143.525 140.114 144.002 140.64L143.607 140.998C143.978 141.409 144.37 141.804 144.773 142.175L145.137 141.779C145.666 142.265 146.221 142.715 146.801 143.131L146.484 143.572C146.931 143.893 147.398 144.198 147.873 144.477L148.149 144.009C148.766 144.371 149.404 144.694 150.059 144.98L149.842 145.48C150.346 145.698 150.866 145.898 151.391 146.071L151.561 145.555C152.239 145.781 152.929 145.968 153.632 146.111L153.526 146.636C154.067 146.745 154.618 146.831 155.163 146.89L155.221 146.36C155.928 146.438 156.644 146.468 157.362 146.459L157.369 146.997C157.921 146.99 158.477 146.958 159.023 146.902L158.968 146.367C159.672 146.293 160.378 146.176 161.081 146.015L161.201 146.544C161.737 146.422 162.275 146.275 162.799 146.105L162.63 145.585C162.781 145.536 162.933 145.49 163.083 145.436C163.612 145.248 164.126 145.035 164.625 144.803L164.855 145.295C165.351 145.064 165.845 144.805 166.322 144.527L166.051 144.06C166.674 143.698 167.272 143.305 167.838 142.877L168.161 143.302C168.431 143.097 168.698 142.884 168.958 142.662C169.121 142.525 169.279 142.385 169.435 142.245L169.076 141.85C169.608 141.366 170.104 140.851 170.569 140.31L170.978 140.665C171.339 140.247 171.684 139.809 172.004 139.362L171.563 139.046C171.979 138.463 172.36 137.857 172.703 137.23L173.18 137.491C173.444 137.007 173.689 136.506 173.908 136.001L173.408 135.784C173.693 135.129 173.938 134.457 174.142 133.771L174.661 133.924C174.817 133.395 174.951 132.853 175.058 132.315L174.532 132.21C174.673 131.512 174.769 130.802 174.825 130.087L175.36 130.128C175.402 129.58 175.42 129.023 175.413 128.472L174.875 128.479C174.865 127.769 174.816 127.056 174.718 126.341L175.25 126.27C175.177 125.725 175.077 125.177 174.955 124.64L174.425 124.761C174.273 124.1 174.085 123.441 173.852 122.786Z" fill="#1A2846"/>
<path id="Fill 125" fill-rule="evenodd" clip-rule="evenodd" d="M152.347 117.59C149.638 118.752 147.47 120.834 146.193 123.52C144.803 126.445 144.634 129.736 145.719 132.787C146.804 135.839 149.012 138.285 151.937 139.676C154.862 141.066 158.152 141.235 161.204 140.15C164.255 139.065 166.701 136.857 168.091 133.932C169.482 131.007 169.65 127.717 168.566 124.665C166.327 118.366 159.38 115.064 153.081 117.303C152.833 117.391 152.587 117.487 152.347 117.59ZM162.362 140.848C162.101 140.96 161.834 141.064 161.563 141.161C154.707 143.598 147.146 140.003 144.708 133.147C143.528 129.826 143.711 126.243 145.224 123.06C146.738 119.876 149.397 117.473 152.722 116.292C156.044 115.112 159.626 115.295 162.809 116.808C165.993 118.322 168.396 120.985 169.576 124.306C170.758 127.627 170.574 131.209 169.06 134.392C167.67 137.317 165.311 139.583 162.362 140.848Z" fill="#174077"/>
<path id="Fill 127" fill-rule="evenodd" clip-rule="evenodd" d="M161.257 124.946L157.822 126.831L157.319 125.871C157.226 125.692 157.211 125.483 157.278 125.292L157.965 123.271C158.08 122.934 158.415 122.737 158.755 122.782C158.81 122.79 158.863 122.799 158.913 122.818C158.928 122.817 158.94 122.828 158.956 122.832L160.12 123.33L160.263 123.394L160.509 123.496C160.662 123.559 160.774 123.683 160.834 123.831L161.257 124.946Z" fill="#1A2846"/>
<path id="Fill 129" fill-rule="evenodd" clip-rule="evenodd" d="M229.38 99.0229L229.486 98.8982C230.016 98.2718 229.94 97.334 229.314 96.8033L214.225 84L212.196 86.3912L227.285 99.1945C227.91 99.7252 228.848 99.6486 229.38 99.0229Z" fill="#1A2846"/>
<path id="Fill 131" fill-rule="evenodd" clip-rule="evenodd" d="M213.305 87.0774L215.083 84.9826L204.69 76.1643L202.912 78.2585L213.305 87.0774Z" fill="#1A2846"/>
<path id="Fill 133" fill-rule="evenodd" clip-rule="evenodd" d="M211.799 85.7989L212.416 85.0716L204.073 77.9924L203.456 78.7198L211.799 85.7989Z" fill="#1A2846"/>
<path id="Fill 135" fill-rule="evenodd" clip-rule="evenodd" d="M200.857 77.2326L203.343 74.3035L193.817 66.2205L191.332 69.1495L200.857 77.2326Z" fill="#1A2846"/>
<path id="Fill 137" fill-rule="evenodd" clip-rule="evenodd" d="M199.387 70.0943L200.046 69.3175C200.55 68.7229 200.477 67.8325 199.883 67.3283L198.487 66.1436C198.235 65.9297 197.857 65.9608 197.643 66.2129L195.545 68.6852L197.398 70.2574C197.992 70.7616 198.883 70.6883 199.387 70.0943Z" fill="#1A2846"/>
<path id="Fill 139" fill-rule="evenodd" clip-rule="evenodd" d="M200.857 77.2325L201.779 76.1455L192.254 68.0625L191.332 69.1495L200.857 77.2325Z" fill="#1A2846"/>
<path id="Fill 141" fill-rule="evenodd" clip-rule="evenodd" d="M195.461 72.8387L198.143 69.6773L197.032 68.7349L194.35 71.8963L195.461 72.8387Z" fill="#1A2846"/>
<path id="Fill 143" fill-rule="evenodd" clip-rule="evenodd" d="M194.3 71.9557L197.083 68.6755L195.493 67.3264L192.71 70.6066L194.3 71.9557Z" fill="#174077"/>
<path id="Fill 145" fill-rule="evenodd" clip-rule="evenodd" d="M196.288 69.4295L193.312 66.9044C193.184 66.7671 193.023 66.6668 192.843 66.6133C192.837 66.6113 192.832 66.6107 192.826 66.6087C192.776 66.5948 192.724 66.5829 192.672 66.5763C192.626 66.5697 192.58 66.5691 192.534 66.5684C192.521 66.5691 192.509 66.5671 192.496 66.5678C192.391 66.5711 192.288 66.5895 192.188 66.6232L188.368 67.5716C187.806 67.7109 187.463 68.2798 187.603 68.8428C187.743 69.4051 188.312 69.7476 188.875 69.6084L192.263 68.7675L194.93 71.03C195.372 71.4049 196.034 71.3508 196.409 70.9086C196.784 70.4664 196.73 69.8044 196.288 69.4295Z" fill="#1A2846"/>
<path id="Fill 147" fill-rule="evenodd" clip-rule="evenodd" d="M196.152 70.2413C195.777 70.6828 195.115 70.737 194.673 70.3627L192.006 68.0996L188.617 68.9411C188.221 69.0394 187.824 68.8949 187.574 68.6058C187.576 68.6844 187.584 68.7636 187.603 68.8428C187.743 69.4051 188.312 69.7476 188.875 69.6084L192.263 68.7675L194.93 71.03C195.372 71.4049 196.034 71.3508 196.409 70.9086C196.749 70.5073 196.733 69.9271 196.397 69.543C196.402 69.7892 196.325 70.038 196.152 70.2413Z" fill="#174077"/>
<path id="Fill 149" fill-rule="evenodd" clip-rule="evenodd" d="M191.461 67.6184C191.132 66.7631 190.172 66.3367 189.316 66.6654C188.461 66.9947 188.034 67.9544 188.364 68.8097C188.692 69.6651 189.653 70.0921 190.508 69.7628C191.363 69.4341 191.79 68.4738 191.461 67.6184Z" fill="#1A2846"/>
<path id="Fill 151" fill-rule="evenodd" clip-rule="evenodd" d="M191.049 67.9871C190.894 67.3608 190.26 66.9793 189.634 67.1344L186.909 67.8109C186.283 67.966 185.901 68.6003 186.056 69.2266C186.211 69.853 186.846 70.2351 187.472 70.0793L190.197 69.4035C190.823 69.2477 191.205 68.6135 191.049 67.9871Z" fill="#EB660C"/>
<path id="Fill 153" fill-rule="evenodd" clip-rule="evenodd" d="M187.191 68.5437L189.916 67.8679C190.359 67.7577 190.803 67.9207 191.082 68.2454C191.08 68.1596 191.071 68.0738 191.049 67.9873C190.894 67.361 190.26 66.9789 189.634 67.1346L186.909 67.8111C186.283 67.9662 185.901 68.5998 186.057 69.2268C186.101 69.4097 186.191 69.568 186.306 69.7014C186.295 69.1674 186.651 68.6777 187.191 68.5437Z" fill="#EF8123"/>
<path id="Fill 155" fill-rule="evenodd" clip-rule="evenodd" d="M203.459 78.7164L205.231 76.6288C205.552 76.2506 205.505 75.6824 205.126 75.3616L203.817 74.2502C203.438 73.9287 202.87 73.9749 202.549 74.3538L200.778 76.4414C200.456 76.8195 200.503 77.3878 200.882 77.7092L202.191 78.82C202.57 79.1421 203.138 79.0952 203.459 78.7164Z" fill="#1A2846"/>
<path id="Fill 157" fill-rule="evenodd" clip-rule="evenodd" d="M196.336 69.5566L197.083 68.6755L195.493 67.3264L194.746 68.2075L196.336 69.5566Z" fill="#174077"/>
<path id="Fill 159" fill-rule="evenodd" clip-rule="evenodd" d="M188.386 68.4912C188.141 67.8543 187.426 67.5361 186.789 67.7817C186.152 68.0265 185.834 68.7413 186.079 69.3782C186.324 70.0151 187.039 70.3332 187.676 70.0877C188.313 69.8428 188.631 69.1281 188.386 68.4912Z" fill="#1A2846"/>
<path id="Fill 161" fill-rule="evenodd" clip-rule="evenodd" d="M193.002 65.7806L191.095 66.5139C190.951 66.5693 190.851 66.6848 190.802 66.8201C191.092 67.0043 191.328 67.2742 191.461 67.6187C191.62 68.0312 191.599 68.4675 191.443 68.8463L191.534 69.0833C191.636 69.3479 191.933 69.4799 192.198 69.3783L194.103 68.645C194.368 68.5434 194.5 68.2464 194.398 67.9811L193.666 66.0756C193.564 65.811 193.266 65.679 193.002 65.7806Z" fill="#16121A"/>
<path id="Fill 163" fill-rule="evenodd" clip-rule="evenodd" d="M193.06 65.7584L191.691 66.2844C191.537 66.3438 191.442 66.4791 191.416 66.6296L192.619 66.1676C192.851 66.0778 193.112 66.194 193.202 66.4263L193.98 68.4492C194.01 68.5284 194.009 68.6089 193.995 68.6868L194.161 68.6228C194.394 68.5337 194.51 68.2723 194.421 68.04L193.643 66.0171C193.554 65.7848 193.293 65.6686 193.06 65.7584Z" fill="#174077"/>
<path id="Fill 165" fill-rule="evenodd" clip-rule="evenodd" d="M213.631 84.8618L229.773 98.5588C230.11 98.1615 230.062 97.5662 229.664 97.2283L214.161 84.0745L212.259 86.3165L212.339 86.3845L213.631 84.8618Z" fill="#174077"/>
<path id="Fill 167" fill-rule="evenodd" clip-rule="evenodd" d="M214.055 83.2802L211.592 81.1899C211.506 81.1173 211.347 81.0843 211.239 81.1167C211.057 81.1708 211.004 81.3378 211.122 81.4869L212.28 82.9574C212.821 83.6438 212.803 84.616 212.238 85.2819L211.726 85.8845C211.54 86.1036 211.567 86.433 211.786 86.6191L212.499 87.223C212.718 87.4091 213.046 87.3821 213.233 87.1629L215.155 84.8972C215.341 84.678 215.315 84.3494 215.095 84.1626L214.055 83.2802Z" fill="#174077"/>
<path id="Fill 169" fill-rule="evenodd" clip-rule="evenodd" d="M229.161 98.1412C229.016 97.732 228.567 97.5188 228.157 97.664C227.749 97.8098 227.536 98.2586 227.681 98.6672C227.826 99.0764 228.276 99.2902 228.684 99.145C229.093 98.9992 229.307 98.5504 229.161 98.1412Z" fill="#1A3357"/>
<path id="Fill 171" fill-rule="evenodd" clip-rule="evenodd" d="M185.36 119.354C185.438 119.574 185.68 119.689 185.9 119.611C186.121 119.533 186.236 119.29 186.158 119.07C186.079 118.85 185.837 118.735 185.617 118.813C185.397 118.892 185.281 119.134 185.36 119.354Z" fill="#595263"/>
<path id="Fill 173" fill-rule="evenodd" clip-rule="evenodd" d="M160.263 123.394L159.726 124.646C159.612 124.887 159.378 125.058 159.094 125.07C158.687 125.087 158.346 124.769 158.328 124.362C158.324 124.26 158.341 124.157 158.38 124.064L158.913 122.818C158.928 122.817 158.94 122.828 158.956 122.832L160.12 123.33L160.263 123.394Z" fill="#174077"/>
<path id="Fill 175" fill-rule="evenodd" clip-rule="evenodd" d="M183.327 117.237L156.119 131.167L154.593 128.189L181.803 114.258L183.327 117.237Z" fill="#1A2846"/>
<path id="Fill 177" fill-rule="evenodd" clip-rule="evenodd" d="M156.173 129.071C156.364 129.606 156.952 129.886 157.487 129.695C158.022 129.505 158.302 128.917 158.112 128.382C157.921 127.847 157.333 127.567 156.798 127.757C156.263 127.948 155.983 128.536 156.173 129.071Z" fill="#E4E5E7"/>
<path id="Fill 179" fill-rule="evenodd" clip-rule="evenodd" d="M171.69 118.345C171.297 118.513 170.855 118.537 170.468 118.394L169.443 118.016C168.844 117.795 168.509 117.213 168.629 116.602L169.518 112.08C169.569 111.816 169.823 111.646 170.087 111.698C170.349 111.749 170.52 112.004 170.468 112.267L169.58 116.789C169.539 116.995 169.705 117.081 169.778 117.108L170.803 117.485C171.019 117.564 171.31 117.501 171.512 117.329L174.151 115.087C174.354 114.914 174.66 114.939 174.833 115.143C175.006 115.347 174.982 115.652 174.778 115.825L172.139 118.067C172.003 118.183 171.85 118.277 171.69 118.345Z" fill="#1D3A6B"/>
<path id="Fill 181" fill-rule="evenodd" clip-rule="evenodd" d="M201.964 108.113C203.256 111.746 201.358 115.738 197.726 117.029C194.093 118.32 190.101 116.423 188.81 112.79C187.519 109.157 189.416 105.166 193.049 103.875C196.681 102.583 200.672 104.481 201.964 108.113Z" fill="#1A3357"/>
<path id="Fill 183" fill-rule="evenodd" clip-rule="evenodd" d="M191.726 103.105C190.513 103.492 189.516 104.232 188.808 105.171C187.993 106.252 186.898 107.089 185.623 107.543L182.896 108.512C181.455 109.025 180.36 110.088 179.762 111.383C179.555 111.832 179.264 112.235 178.91 112.582C177.223 114.243 176.456 116.278 177.086 118.049C177.843 120.181 180.413 121.332 183.447 121.164C184.674 121.691 186.093 121.778 187.442 121.299L196.473 118.088C199.314 117.078 200.811 113.928 199.801 111.087L199.597 110.512C199.435 110.057 199.376 109.574 199.406 109.091C199.458 108.264 199.335 107.41 199.013 106.583C197.889 103.696 194.677 102.162 191.726 103.105Z" fill="#1A2846"/>
<path id="Fill 185" fill-rule="evenodd" clip-rule="evenodd" d="M191.557 106.212C189.454 106.993 187.804 108.412 186.881 110.035C186.238 111.165 185.221 112.035 183.99 112.456C183.963 112.465 183.937 112.474 183.91 112.483C181.603 113.304 180.176 115.216 180.723 116.756C181.271 118.295 183.585 118.878 185.892 118.058C186.016 118.014 186.137 117.967 186.255 117.917C187.401 117.433 188.682 117.334 189.872 117.694C191.473 118.178 193.402 118.123 195.309 117.414C199.244 115.952 201.595 112.258 200.559 109.165C199.523 106.071 195.492 104.749 191.557 106.212Z" fill="#1A3357"/>
<path id="Fill 187" fill-rule="evenodd" clip-rule="evenodd" d="M197.13 110.169C197.032 110.211 196.987 110.322 197.021 110.423C197.021 110.423 197.022 110.424 197.022 110.425C197.536 111.958 196.37 113.79 194.419 114.515C193.244 114.952 192.055 114.887 191.181 114.433C190.061 113.85 188.747 113.765 187.586 114.263L187.527 114.288C188.561 116.714 191.859 117.717 195.088 116.516C198.447 115.269 200.452 112.117 199.567 109.478C199.532 109.374 199.487 109.276 199.444 109.177L197.13 110.169Z" fill="#1A2846"/>
<path id="Fill 189" fill-rule="evenodd" clip-rule="evenodd" d="M200.703 103.286C201.143 104.524 200.496 105.885 199.258 106.325C198.021 106.764 196.66 106.117 196.22 104.88C195.78 103.642 196.427 102.282 197.664 101.842C198.902 101.402 200.263 102.049 200.703 103.286Z" fill="#1A3357"/>
<path id="Fill 191" fill-rule="evenodd" clip-rule="evenodd" d="M196.645 103.544C196.747 103.832 196.597 104.149 196.308 104.251C196.02 104.354 195.703 104.203 195.601 103.915C195.498 103.626 195.649 103.31 195.937 103.207C196.225 103.105 196.543 103.255 196.645 103.544Z" fill="#1A3357"/>
<path id="Fill 193" fill-rule="evenodd" clip-rule="evenodd" d="M201.334 104.203C201.436 104.492 201.286 104.809 200.997 104.911C200.709 105.014 200.392 104.863 200.29 104.574C200.187 104.286 200.338 103.97 200.626 103.867C200.915 103.764 201.231 103.915 201.334 104.203Z" fill="#1A3357"/>
<path id="Fill 195" fill-rule="evenodd" clip-rule="evenodd" d="M185.935 56.5093L185.562 56.6697C185.562 56.6697 185.832 58.0946 186.331 59.2582C186.956 60.7175 187.677 61.5992 187.677 61.5992L188.838 61.1009C189.296 60.9049 189.767 60.0812 189.551 59.581C189.551 59.581 188.68 58.0438 188.311 57.5825C187.917 57.0914 186.829 56.1259 185.935 56.5093Z" fill="#1A2846"/>
<path id="Fill 197" fill-rule="evenodd" clip-rule="evenodd" d="M170.186 118.064L168.964 117.645L168.525 118.926L169.747 119.345C169.901 119.398 170.069 119.316 170.122 119.162L170.37 118.439C170.423 118.285 170.34 118.117 170.186 118.064Z" fill="#1D3A6B"/>
<path id="Fill 199" fill-rule="evenodd" clip-rule="evenodd" d="M164.798 117.921L168.504 119.193C168.686 119.255 168.883 119.159 168.945 118.978L169.328 117.863C169.391 117.681 169.294 117.484 169.113 117.422L165.406 116.149C165.225 116.087 165.028 116.184 164.965 116.365L164.583 117.48C164.521 117.661 164.617 117.859 164.798 117.921Z" fill="#EB660C"/>
<path id="Fill 201" fill-rule="evenodd" clip-rule="evenodd" d="M169.32 118.728C169.246 118.556 169.326 118.357 169.498 118.283C169.671 118.209 169.87 118.289 169.944 118.461C170.018 118.633 169.938 118.832 169.766 118.906C169.593 118.98 169.394 118.9 169.32 118.728Z" fill="#1A2846"/>
<path id="Fill 203" fill-rule="evenodd" clip-rule="evenodd" d="M198.386 71.7608C198.085 71.5226 198.148 71.048 198.501 70.8969L201.793 69.4845C202.306 69.2647 202.9 69.3551 203.324 69.7181C203.82 70.1418 203.976 70.8428 203.708 71.4374L202.464 74.185C202.328 74.4853 201.946 74.5784 201.687 74.3731L198.386 71.7608Z" fill="#174077"/>
<path id="Fill 205" fill-rule="evenodd" clip-rule="evenodd" d="M201.778 70.178L201.01 70.508C200.593 70.6862 200.391 71.1475 200.558 71.5376L200.576 71.5785C200.743 71.9679 201.216 72.1395 201.633 71.9606L202.401 71.6313L201.778 70.178Z" fill="#1A2846"/>
<path id="Fill 207" fill-rule="evenodd" clip-rule="evenodd" d="M201.986 70.089L201.651 70.2322L202.274 71.6855L202.609 71.5417C202.811 71.4552 202.908 71.2321 202.828 71.0427L202.498 70.2745C202.417 70.085 202.188 70.0025 201.986 70.089Z" fill="#EB660C"/>
<path id="Fill 209" fill-rule="evenodd" clip-rule="evenodd" d="M160.488 126.999C159.974 127.003 159.555 126.588 159.551 126.074L159.54 124.151C159.537 123.636 159.951 123.217 160.465 123.214C160.98 123.21 161.399 123.625 161.403 124.139L161.414 126.063C161.417 126.577 161.003 126.997 160.488 126.999Z" fill="#174077"/>
<path id="Fill 211" fill-rule="evenodd" clip-rule="evenodd" d="M160.387 110.364C159.763 110.368 159.254 109.865 159.25 109.241L159.24 107.537C159.236 106.913 159.739 106.404 160.363 106.4C160.987 106.396 161.497 106.899 161.501 107.523L161.511 109.227C161.515 109.851 161.012 110.36 160.387 110.364Z" fill="#174077"/>
<path id="Fill 213" fill-rule="evenodd" clip-rule="evenodd" d="M161.157 124.878L159.794 124.887C159.355 124.889 158.996 124.534 158.993 124.095L158.901 109.072C158.899 108.632 159.253 108.273 159.693 108.27L161.056 108.262C161.496 108.26 161.855 108.614 161.857 109.054L161.949 124.077C161.951 124.516 161.597 124.875 161.157 124.878Z" fill="#174077"/>
<path id="Fill 215" fill-rule="evenodd" clip-rule="evenodd" d="M162.531 111.041L158.252 111.067L158.246 110.028L162.525 110.003L162.531 111.041Z" fill="#174077"/>
<path id="Fill 217" fill-rule="evenodd" clip-rule="evenodd" d="M162.115 111.563L158.674 111.584C158.531 111.584 158.414 111.469 158.413 111.326C158.412 111.182 158.527 111.066 158.671 111.064L162.112 111.043C162.255 111.042 162.372 111.158 162.373 111.301C162.374 111.445 162.258 111.562 162.115 111.563Z" fill="#1A2846"/>
<path id="Fill 219" fill-rule="evenodd" clip-rule="evenodd" d="M162.191 124.064L158.75 124.085C158.607 124.086 158.49 123.971 158.489 123.827C158.488 123.684 158.603 123.567 158.747 123.566L162.188 123.545C162.331 123.544 162.448 123.66 162.449 123.803C162.45 123.947 162.334 124.064 162.191 124.064Z" fill="#1A2846"/>
<path id="Fill 221" fill-rule="evenodd" clip-rule="evenodd" d="M162.088 113.169L158.664 112.831C158.522 112.817 158.417 112.689 158.431 112.547C158.445 112.404 158.572 112.3 158.715 112.314L162.14 112.652C162.282 112.667 162.387 112.794 162.372 112.936C162.358 113.079 162.231 113.183 162.088 113.169Z" fill="#1A2846"/>
<path id="Fill 223" fill-rule="evenodd" clip-rule="evenodd" d="M162.098 114.777L158.674 114.438C158.531 114.424 158.427 114.297 158.441 114.154C158.455 114.011 158.582 113.908 158.725 113.921L162.149 114.26C162.292 114.274 162.396 114.401 162.382 114.544C162.368 114.686 162.24 114.791 162.098 114.777Z" fill="#1A2846"/>
<path id="Fill 225" fill-rule="evenodd" clip-rule="evenodd" d="M162.108 116.384L158.684 116.046C158.541 116.032 158.437 115.905 158.451 115.762C158.465 115.619 158.592 115.515 158.735 115.529L162.159 115.868C162.301 115.882 162.406 116.009 162.392 116.151C162.378 116.295 162.25 116.398 162.108 116.384Z" fill="#1A2846"/>
<path id="Fill 227" fill-rule="evenodd" clip-rule="evenodd" d="M162.118 117.992L158.694 117.654C158.551 117.639 158.447 117.512 158.461 117.37C158.474 117.227 158.602 117.123 158.744 117.137L162.169 117.475C162.311 117.489 162.416 117.617 162.401 117.759C162.388 117.902 162.26 118.006 162.118 117.992Z" fill="#1A2846"/>
<path id="Fill 229" fill-rule="evenodd" clip-rule="evenodd" d="M162.127 119.6L158.703 119.261C158.561 119.247 158.456 119.12 158.47 118.977C158.484 118.835 158.611 118.73 158.754 118.744L162.179 119.083C162.321 119.097 162.426 119.224 162.411 119.367C162.397 119.51 162.27 119.613 162.127 119.6Z" fill="#1A2846"/>
<path id="Fill 231" fill-rule="evenodd" clip-rule="evenodd" d="M162.137 121.207L158.713 120.869C158.57 120.854 158.466 120.728 158.48 120.585C158.494 120.442 158.621 120.338 158.764 120.352L162.188 120.691C162.331 120.705 162.435 120.832 162.421 120.974C162.407 121.117 162.28 121.221 162.137 121.207Z" fill="#1A2846"/>
<path id="Fill 233" fill-rule="evenodd" clip-rule="evenodd" d="M162.147 122.815L158.723 122.476C158.58 122.462 158.476 122.335 158.49 122.192C158.504 122.05 158.631 121.946 158.774 121.959L162.198 122.298C162.34 122.313 162.445 122.439 162.431 122.582C162.417 122.725 162.289 122.829 162.147 122.815Z" fill="#1A2846"/>
<path id="Fill 235" fill-rule="evenodd" clip-rule="evenodd" d="M160.906 126.109C160.908 126.343 160.72 126.534 160.485 126.536C160.252 126.537 160.061 126.348 160.059 126.115C160.058 125.88 160.246 125.69 160.48 125.688C160.714 125.687 160.905 125.876 160.906 126.109Z" fill="#1A2846"/>
<path id="Fill 237" fill-rule="evenodd" clip-rule="evenodd" d="M160.869 107.387C160.871 107.663 160.649 107.888 160.372 107.89C160.096 107.892 159.87 107.669 159.869 107.393C159.867 107.117 160.09 106.891 160.366 106.89C160.642 106.888 160.868 107.111 160.869 107.387Z" fill="#1A2846"/>
<path id="Fill 239" fill-rule="evenodd" clip-rule="evenodd" d="M129.861 113.465L131.637 112.704C132.6 112.29 133.685 112.667 134.062 113.544L134.102 113.636C134.478 114.514 134.002 115.56 133.039 115.973L131.263 116.735L129.861 113.465Z" fill="#1A3357"/>
<path id="Fill 241" fill-rule="evenodd" clip-rule="evenodd" d="M129.381 113.671L130.154 113.34L131.557 116.609L130.783 116.941C130.316 117.141 129.79 116.959 129.608 116.534L128.866 114.804C128.684 114.378 128.914 113.871 129.381 113.671Z" fill="#D83333"/>
<path id="Fill 243" fill-rule="evenodd" clip-rule="evenodd" d="M131.561 117.048L132.529 116.633C133.054 116.408 133.65 116.623 133.861 117.115L133.883 117.166C134.094 117.657 133.839 118.238 133.314 118.463L132.346 118.878L131.561 117.048Z" fill="#1A3357"/>
<path id="Fill 245" fill-rule="evenodd" clip-rule="evenodd" d="M131.3 117.16L131.721 116.979L132.506 118.81L132.084 118.991C131.83 119.099 131.542 118.995 131.44 118.757L131.024 117.789C130.922 117.551 131.045 117.27 131.3 117.16Z" fill="#EE8A48"/>
<path id="Fill 247" fill-rule="evenodd" clip-rule="evenodd" d="M166.285 103.237L173.079 100.322C173.848 99.993 174.736 100.375 175.025 101.16L178.065 109.397C178.287 109.999 177.998 110.669 177.408 110.922L173.802 112.464C172.843 112.874 171.734 112.689 170.96 111.991L165.631 107.19C164.341 106.028 164.69 103.921 166.285 103.237Z" fill="#EB660C"/>
<path id="Fill 249" fill-rule="evenodd" clip-rule="evenodd" d="M200.534 118.842C200.361 118.916 200.186 118.985 200.008 119.05L181.078 125.916L180.997 125.932L146.114 132.689C146.102 132.692 146.092 132.684 146.09 132.673L145.696 130.641C145.694 130.63 145.701 130.619 145.712 130.617L180.513 123.875C180.514 123.875 180.515 123.875 180.515 123.875L199.288 117.066C202.582 115.873 204.671 112.601 204.373 109.113L203.526 99.1722C203.444 98.2125 202.952 97.3697 202.165 96.8305C201.249 96.2028 200.061 96.125 199.04 96.5632L196.594 97.6119C196.336 97.7228 196.036 97.6034 195.925 97.3446L195.604 96.5969C195.433 96.1969 195.618 95.7342 196.017 95.5633L198.193 94.6294C199.78 93.9489 201.612 94.0275 203.091 94.9178C204.559 95.8016 205.484 97.2859 205.629 98.9933L206.476 108.934C206.839 113.183 204.415 117.177 200.534 118.842Z" fill="#1A3357"/>
<path id="Fill 251" fill-rule="evenodd" clip-rule="evenodd" d="M186.406 122.232L197.707 116.641C199.436 115.787 200.766 114.296 201.421 112.482L203.698 106.176C203.912 105.584 204.417 105.145 205.032 105.015L206.123 104.784C206.123 104.784 206.682 109.187 206.752 112.865C206.797 115.177 205.383 117.268 203.216 118.077L185.609 124.647C185.396 124.726 185.169 124.567 185.174 124.34C185.189 123.729 185.373 122.674 186.406 122.232Z" fill="#111E35"/>
<path id="Fill 253" fill-rule="evenodd" clip-rule="evenodd" d="M186.406 122.231L184.908 122.874C184.119 123.212 183.202 123.162 182.456 122.74L181.191 122.026C181.046 121.944 180.995 121.761 181.077 121.616C181.159 121.47 181.343 121.42 181.487 121.501L182.752 122.215C183.336 122.545 184.054 122.585 184.67 122.32L186.168 121.677C187.228 121.222 188.158 120.498 188.859 119.582L189.854 118.281C189.943 118.164 189.962 118.009 189.904 117.875L189.745 117.502C189.679 117.349 189.75 117.172 189.903 117.107C190.056 117.041 190.233 117.111 190.298 117.265L190.459 117.638C190.602 117.971 190.554 118.359 190.333 118.647L189.338 119.948C188.575 120.947 187.561 121.736 186.406 122.231Z" fill="#174077"/>
<path id="Fill 255" fill-rule="evenodd" clip-rule="evenodd" d="M190.845 116.497L190.817 116.507L190.847 116.594L190.543 116.702L190.513 116.615L190.089 116.766L190.119 116.852L189.815 116.961L189.784 116.874L189.36 117.025L189.391 117.112L189.087 117.219L189.057 117.133L189.028 117.143C188.938 117.175 188.882 117.25 188.903 117.311L188.95 117.442C189.067 117.772 189.562 117.896 190.056 117.721L190.412 117.594C190.906 117.419 191.212 117.009 191.094 116.679L191.048 116.549C191.026 116.488 190.936 116.465 190.845 116.497Z" fill="#EB660C"/>
<path id="Fill 257" fill-rule="evenodd" clip-rule="evenodd" d="M181.127 121.867C181.174 122 181.319 122.069 181.452 122.022C181.585 121.975 181.654 121.829 181.607 121.696C181.56 121.564 181.414 121.495 181.282 121.542C181.149 121.589 181.08 121.734 181.127 121.867Z" fill="#EB660C"/>
<path id="Fill 259" fill-rule="evenodd" clip-rule="evenodd" d="M185.51 119.338L185.435 119.365L185.511 119.578L185.021 119.752L184.946 119.539L184.112 119.835L184.188 120.048L183.589 120.261L183.514 120.048L182.68 120.344L182.756 120.557L182.266 120.731L182.19 120.519L182.115 120.545C181.961 120.6 181.88 120.77 181.935 120.924C182.235 121.767 183.16 122.207 184.003 121.908L184.906 121.586C185.749 121.287 186.189 120.361 185.89 119.518C185.835 119.364 185.665 119.283 185.51 119.338Z" fill="#174077"/>
<path id="Fill 261" fill-rule="evenodd" clip-rule="evenodd" d="M185.982 120.02C185.978 119.853 185.948 119.684 185.89 119.519C185.835 119.364 185.665 119.284 185.51 119.338L185.435 119.365L185.511 119.578L185.021 119.752L184.946 119.539L184.112 119.835L184.188 120.048L183.589 120.261L183.514 120.048L182.681 120.344L182.756 120.557L182.266 120.732L182.19 120.519L182.116 120.545C181.961 120.6 181.88 120.77 181.936 120.924C182.027 121.181 182.039 121.256 182.227 121.429L185.982 120.02Z" fill="#EB660C"/>
<path id="Fill 263" fill-rule="evenodd" clip-rule="evenodd" d="M139.11 109.55C139.532 109.899 140.265 110.329 141.238 110.23L172.023 99.1938C172.023 99.1938 172.905 98.8968 172.657 97.9906C172.497 97.4065 172.419 96.8026 172.462 96.198L172.525 95.2958C172.525 95.2958 172.284 94.3467 171.356 94.0728C171.009 93.9705 170.637 93.9963 170.298 94.1243L154.615 100.058C153.89 100.333 153.091 100.336 152.365 100.066L148.232 98.5311C148.232 98.5311 147.016 97.8672 145.625 99.2116C145.625 99.2116 142.537 102.024 140.715 103.992C140.301 104.439 139.955 104.946 139.69 105.495C139.315 106.27 138.84 107.45 138.726 108.63C138.692 108.982 138.838 109.326 139.11 109.55Z" fill="#1A2846"/>
<path id="Fill 265" fill-rule="evenodd" clip-rule="evenodd" d="M171.045 93.4408L170.918 94.1596C170.833 94.646 170.928 95.1463 171.184 95.5674L171.799 96.5758C172.309 97.4121 173.344 97.7652 174.259 97.4134L194.163 89.7679C194.467 89.6511 194.759 89.5046 195.033 89.329C196.115 88.6367 198.597 86.7735 198.339 84.3962L198.328 79.1268C198.325 77.7942 197.626 76.5574 196.481 75.8782C195.619 75.3681 194.429 74.949 192.851 74.9707C192.851 74.9707 184.077 74.1972 175.703 85.7578L171.045 93.4408Z" fill="#EB660C"/>
<path id="Fill 267" fill-rule="evenodd" clip-rule="evenodd" d="M173.718 99.1045C173.727 98.5765 173.201 98.2056 172.707 98.3917L141.862 109.995C141.305 110.204 140.67 110.124 140.205 109.753C139.962 109.559 139.771 109.298 139.769 108.953C139.768 108.409 139.361 107.951 138.818 107.923L138.514 107.908C138.333 107.899 138.208 107.9 138.083 107.908L136.572 108.005C136.174 108.03 135.874 108.375 135.902 108.772L135.947 109.379C135.965 109.637 136.121 109.865 136.355 109.976C137.348 110.447 140.02 111.66 140.988 111.579C141.915 111.501 163.811 102.977 173.718 99.1045Z" fill="#174077"/>
<path id="Fill 269" fill-rule="evenodd" clip-rule="evenodd" d="M144.422 128.362L142.896 129.966C142.625 130.251 142.508 130.65 142.582 131.036L142.693 131.617L142.784 132.087L142.895 132.668C142.97 133.055 143.226 133.381 143.584 133.546L145.595 134.47C146.104 134.704 146.681 134.742 147.216 134.577L174.731 127.474C175.115 127.375 175.356 126.994 175.281 126.604L175.041 125.354C174.967 124.971 174.614 124.708 174.226 124.747L145.887 127.661C145.33 127.707 144.807 127.956 144.422 128.362Z" fill="#1A3357"/>
<path id="Fill 271" fill-rule="evenodd" clip-rule="evenodd" d="M150.799 131.479L165.292 128.126C165.847 127.998 166.209 127.46 166.119 126.897C166.028 126.333 165.517 125.935 164.948 125.987L150.135 127.329C148.92 127.439 148.052 128.555 148.245 129.76C148.438 130.964 149.611 131.754 150.799 131.479Z" fill="#174077"/>
<path id="Fill 273" fill-rule="evenodd" clip-rule="evenodd" d="M185.199 89.4796L184.687 88.2863C183.96 86.5921 181.858 85.9974 180.351 87.0594L174.812 90.9653C174.74 91.0167 174.665 91.0629 174.589 91.1078L173.966 91.8054C173.658 92.15 173.471 92.5862 173.435 93.0469L173.356 94.031C173.23 95.6057 174.81 96.7587 176.271 96.1595L185.373 92.4252L185.35 92.3724C185.645 91.4207 185.591 90.395 185.199 89.4796Z" fill="#EF8123"/>
<path id="Fill 275" fill-rule="evenodd" clip-rule="evenodd" d="M186.469 84.435C186.336 84.1591 186.171 83.8977 185.963 83.672C185.69 83.3744 185.387 83.1533 185.074 82.9909C183.757 82.3058 182.135 82.6563 181.146 83.7631L174.589 91.1076C174.665 91.0634 174.74 91.0165 174.812 90.9657L180.351 87.0598C181.858 85.9979 183.96 86.5925 184.687 88.2861L185.198 89.48C185.591 90.3954 185.645 91.4211 185.35 92.3728L185.373 92.4256L186.522 91.9544C188.088 91.3115 188.824 89.5117 188.157 87.9567L186.469 84.435Z" fill="#DC5B12"/>
<path id="Fill 277" fill-rule="evenodd" clip-rule="evenodd" d="M178.23 91.7027L175.124 93.0353C174.95 93.1098 174.748 93.0293 174.673 92.8551C174.599 92.6808 174.679 92.4789 174.853 92.4043L177.959 91.0718C178.134 90.9972 178.335 91.0777 178.41 91.2519C178.485 91.4262 178.404 91.6281 178.23 91.7027Z" fill="#DC5B12"/>
<path id="Fill 279" fill-rule="evenodd" clip-rule="evenodd" d="M178.633 92.6424L175.527 93.975C175.353 94.0495 175.151 93.969 175.076 93.7948C175.002 93.6199 175.082 93.4186 175.256 93.3433L178.362 92.0115C178.537 91.9369 178.739 92.0174 178.813 92.1916C178.888 92.3659 178.807 92.5678 178.633 92.6424Z" fill="#DC5B12"/>
<path id="Fill 281" fill-rule="evenodd" clip-rule="evenodd" d="M179.036 93.5816L175.93 94.9142C175.756 94.9887 175.554 94.9082 175.479 94.734C175.405 94.5597 175.485 94.3578 175.659 94.2825L178.765 92.9507C178.94 92.8761 179.142 92.9566 179.216 93.1308C179.291 93.3051 179.21 93.507 179.036 93.5816Z" fill="#DC5B12"/>
<path id="Fill 283" fill-rule="evenodd" clip-rule="evenodd" d="M185.353 77.6057L185.374 77.607C185.843 77.6354 186.312 77.5535 186.743 77.3687L189.342 76.2533C189.843 76.0388 189.647 75.2844 189.106 75.3458C187.883 75.4844 186.39 75.8501 185.114 76.7397C184.743 76.9985 184.901 77.5786 185.353 77.6057Z" fill="#D64D14"/>
<path id="Fill 285" fill-rule="evenodd" clip-rule="evenodd" d="M197.471 77.7339C197.471 77.7339 194.486 79.566 194.338 81.7698L194.625 88.5605C194.625 88.5605 196.714 87.8655 197.531 85.2051C197.66 84.7847 197.71 84.3438 197.694 83.9042L197.471 77.7339Z" fill="#D64D14"/>
<path id="Fill 287" fill-rule="evenodd" clip-rule="evenodd" d="M216.056 91.4871C216.056 91.4871 212.115 96.2087 213.346 99.9298C213.614 100.743 213.473 101.635 212.946 102.309C212.28 103.162 211.404 104.236 210.787 104.811C210.787 104.811 209.671 93.8664 213.734 90.2324L216.056 91.4871Z" fill="#EB660C"/>
<path id="Fill 289" fill-rule="evenodd" clip-rule="evenodd" d="M220.11 88.2449L220.686 86.5698C220.963 85.7613 221.439 85.0367 222.068 84.4578C223.138 83.4738 224.868 81.9835 226.112 81.4139C226.112 81.4139 226.907 80.9321 227.071 80.0926L226.949 79.8062C226.949 79.8062 219.613 81.9373 218.198 86.5936L220.11 88.2449Z" fill="#EB660C"/>
<path id="Fill 291" fill-rule="evenodd" clip-rule="evenodd" d="M165.228 33.2842C165.725 34.5151 165.131 35.9163 163.901 36.4139C162.67 36.9122 161.269 36.3176 160.771 35.0867C160.273 33.8564 160.867 32.4553 162.098 31.957C163.329 31.4593 164.73 32.0533 165.228 33.2842Z" fill="#F26522"/>
<path id="Fill 293" fill-rule="evenodd" clip-rule="evenodd" d="M164.418 33.612C164.734 34.3954 164.356 35.2871 163.573 35.6039C162.79 35.9207 161.898 35.5425 161.582 34.7591C161.265 33.9763 161.642 33.0847 162.426 32.7679C163.209 32.4511 164.101 32.8286 164.418 33.612Z" fill="#EF7D00"/>
<path id="Fill 295" fill-rule="evenodd" clip-rule="evenodd" d="M112.253 92.7131C110.646 93.3672 109.872 95.2073 110.526 96.8137C111.181 98.4202 113.02 99.1957 114.627 98.5409L132.839 91.1239C134.446 90.4698 135.221 88.6297 134.566 87.0233C133.912 85.4168 132.072 84.642 130.465 85.2961L112.253 92.7131ZM133.432 92.5811L115.22 99.9982C112.81 100.98 110.051 99.8174 109.069 97.4071C108.087 94.9967 109.25 92.2379 111.66 91.2559L129.872 83.8394C132.282 82.8574 135.041 84.0196 136.023 86.4299C137.005 88.8403 135.842 91.5997 133.432 92.5811Z" fill="#F9F7E5"/>
<path id="Fill 297" fill-rule="evenodd" clip-rule="evenodd" d="M115.86 95.0651C115.86 95.9337 115.156 96.6379 114.287 96.6379C113.418 96.6379 112.714 95.9337 112.714 95.0651C112.714 94.1966 113.418 93.4917 114.287 93.4917C115.156 93.4917 115.86 94.1966 115.86 95.0651Z" fill="#F9F7E5"/>
<path id="Fill 299" fill-rule="evenodd" clip-rule="evenodd" d="M298.059 156.228C298.999 155.631 299.625 154.647 299.769 153.542L299.892 152.586C299.894 152.585 299.895 152.584 299.897 152.582C300.753 153.198 301.647 153.654 302.554 153.944C303.98 154.398 305.44 154.444 306.841 154.057C309.033 153.452 310.746 151.846 311.811 149.69L315.177 149.033C317.749 148.531 320.416 149.538 321.922 151.683C321.937 151.703 321.951 151.724 321.965 151.744C322.494 152.516 322.067 153.578 321.154 153.782L320.645 153.896C320.204 153.994 319.741 153.908 319.364 153.658L318.662 153.19C317.87 152.664 316.906 152.464 315.97 152.633L303.834 154.821C302.492 155.063 301.394 156.026 300.98 157.326C300.849 157.736 300.502 158.041 300.077 158.117L299.344 158.25C298.295 158.439 297.395 157.682 297.271 156.729L298.059 156.228ZM294.484 143.12C294.575 143.754 294.705 144.395 294.882 145.036C295.453 147.106 296.42 148.981 297.684 150.504C297.259 150.748 296.646 150.658 296.391 150.099L293.788 144.396C293.509 143.783 293.946 143.21 294.484 143.12ZM295.203 143.318C295.098 143.228 294.986 143.175 294.873 143.14C294.986 143.175 295.098 143.228 295.203 143.318ZM294.771 143.123C294.69 143.109 294.61 143.102 294.531 143.111C294.611 143.102 294.69 143.108 294.771 143.123ZM300.289 149.521L300.208 150.148L300.289 149.521C300.363 148.945 300.303 148.36 300.114 147.811C300.303 148.36 300.363 148.945 300.289 149.521ZM329.106 162.001C329.098 161.98 329.09 161.959 329.083 161.939C329.058 161.874 329.033 161.81 329.009 161.745C328.991 161.699 328.973 161.652 328.955 161.605H328.954C327.538 157.941 326.108 154.959 324.817 152.605C323.636 150.449 319.714 143.896 304.21 149.064C296.692 146.366 293.398 139.587 293.398 139.587C292.47 138.971 291.317 138.8 290.249 139.118L268.461 145.635C267.25 145.996 266.303 146.943 265.941 148.154L264.076 154.384C263.908 154.945 263.888 155.53 263.987 156.098L256.739 159.406C256.617 159.462 256.512 159.548 256.434 159.657L255.641 160.759C255.457 161.016 255.134 161.134 254.828 161.057L254.275 160.918C253.949 160.836 253.609 160.974 253.432 161.259L252.491 162.779C252.345 163.014 252.084 163.154 251.808 163.144L250.702 163.104C250.583 163.1 250.464 163.124 250.355 163.173L249.309 163.651C249.178 163.711 249.066 163.806 248.986 163.927L247.884 165.594C247.804 165.715 247.693 165.811 247.561 165.87L244.397 167.315C244.288 167.364 244.17 167.388 244.049 167.384L242.378 167.324C242.095 167.314 241.829 167.46 241.686 167.704L238.919 172.407C238.791 172.623 238.777 172.889 238.882 173.117L238.985 173.343C239.086 173.564 239.284 173.724 239.521 173.776L243.749 174.701C244.027 174.762 244.315 174.664 244.5 174.448L246.868 171.67C246.941 171.585 247.032 171.516 247.134 171.469L249.674 170.31C249.903 170.206 250.168 170.22 250.385 170.347L252.142 171.381C252.491 171.587 252.938 171.487 253.167 171.154L253.275 170.998C253.475 170.707 253.848 170.589 254.179 170.713C254.462 170.818 254.781 170.748 254.994 170.534L255.968 169.558C256.119 169.407 256.327 169.325 256.541 169.332L257.757 169.376C257.877 169.379 257.996 169.356 258.105 169.306L259.682 168.586C259.916 168.479 260.189 168.496 260.408 168.632L260.5 168.689C260.719 168.824 260.992 168.842 261.226 168.735L268.489 165.419C268.758 165.65 269.051 165.852 269.378 166L275.307 168.673C276.459 169.193 277.795 169.098 278.861 168.42L294.353 158.582C294.258 159.097 294.196 159.623 294.178 160.159C294.079 163.159 294.167 166.173 294.378 169.173L294.365 169.181C294.375 169.34 294.384 169.498 294.396 169.656L294.413 169.645C295.687 186.613 301.335 203.026 305.583 213.283C308.129 219.435 314.865 222.717 321.276 220.921L327.429 219.196C333.257 217.563 337.228 212.161 337.02 206.113C336.33 185.986 332.786 171.661 329.106 162.001Z" fill="#EAE5C1"/>
<path id="Fill 301" fill-rule="evenodd" clip-rule="evenodd" d="M313.424 136.437C312.596 133.432 310.932 130.839 308.738 129.136C306.456 127.362 303.872 126.752 301.465 127.416C297.871 128.406 295.552 132.077 295.295 136.478L297.36 137.847C297.163 133.77 298.974 130.263 302.018 129.424C303.02 129.148 304.076 129.185 305.125 129.519C305.918 129.772 306.706 130.195 307.46 130.781C309.301 132.211 310.705 134.416 311.415 136.99C312.85 142.195 310.97 147.27 307.223 148.303C305.465 148.788 303.532 148.305 301.781 146.946C301.563 146.776 301.35 146.594 301.145 146.403L300.829 148.834C301.686 149.451 302.581 149.908 303.491 150.198C304.916 150.652 306.376 150.697 307.778 150.311C312.631 148.973 315.164 142.749 313.424 136.437Z" fill="#FFFEF2"/>
<path id="Fill 303" fill-rule="evenodd" clip-rule="evenodd" d="M266.204 151.768L257.676 155.66C257.554 155.716 257.448 155.802 257.37 155.911L256.578 157.013C256.393 157.27 256.07 157.388 255.764 157.31L255.212 157.172C254.886 157.09 254.545 157.228 254.368 157.514L253.427 159.033C253.281 159.269 253.021 159.407 252.744 159.398L251.638 159.358C251.519 159.355 251.4 159.378 251.291 159.427L250.246 159.905C250.114 159.965 250.002 160.061 249.923 160.181L248.821 161.849C248.741 161.969 248.629 162.065 248.497 162.125L245.333 163.569C245.224 163.619 245.106 163.643 244.986 163.638L243.314 163.579C243.031 163.569 242.766 163.714 242.623 163.958L239.855 168.661C239.728 168.878 239.714 169.143 239.818 169.371L239.921 169.598C240.022 169.818 240.221 169.979 240.458 170.03L244.685 170.955C244.963 171.016 245.252 170.918 245.436 170.702L247.804 167.925C247.878 167.839 247.969 167.77 248.071 167.723L250.611 166.564C250.839 166.46 251.104 166.474 251.321 166.601L253.078 167.636C253.427 167.841 253.875 167.741 254.104 167.408L254.211 167.252C254.412 166.961 254.785 166.843 255.116 166.966C255.398 167.072 255.717 167.003 255.931 166.789L256.904 165.813C257.055 165.661 257.263 165.579 257.477 165.586L258.694 165.629C258.813 165.634 258.932 165.61 259.041 165.56L260.619 164.84C260.853 164.734 261.126 164.751 261.345 164.886L261.437 164.943C261.655 165.079 261.928 165.096 262.162 164.989L270.501 161.183C270.889 161.006 271.059 160.549 270.882 160.162L267.225 152.149C267.048 151.762 266.591 151.591 266.204 151.768Z" fill="#FFFEF2"/>
<path id="Fill 305" fill-rule="evenodd" clip-rule="evenodd" d="M239.818 169.371L239.921 169.597C240.022 169.818 240.221 169.978 240.458 170.03L241.345 170.224L265.118 159.374L259.97 160.365C257.659 160.811 255.41 161.529 253.268 162.507L239.88 168.618" fill="#F9F7E5"/>
<path id="Fill 307" fill-rule="evenodd" clip-rule="evenodd" d="M297.328 146.353L294.725 140.65C294.322 139.767 295.403 138.941 296.139 139.573C298.374 141.492 298.997 143.966 299.068 145.941C299.104 146.938 297.742 147.261 297.328 146.353ZM279.798 164.674L298.995 152.482C299.936 151.885 300.562 150.901 300.705 149.796L301.225 145.775C301.3 145.199 301.24 144.614 301.05 144.065L300.312 141.935C300.235 141.711 300.136 141.494 300.017 141.288L298.891 139.335C298.601 138.832 298.198 138.403 297.714 138.083L294.335 135.841C293.407 135.225 292.253 135.054 291.186 135.373L269.397 141.888C268.187 142.251 267.24 143.197 266.878 144.407L265.012 150.638C264.758 151.489 264.813 152.403 265.169 153.217L266.552 156.381L266.537 156.388L266.761 156.858L266.969 157.335L266.984 157.328L268.468 160.446C268.85 161.248 269.504 161.889 270.314 162.254L276.244 164.927C277.395 165.447 278.731 165.352 279.798 164.674Z" fill="#F26522"/>
<path id="Fill 309" fill-rule="evenodd" clip-rule="evenodd" d="M268.463 148.985L268.388 148.791C268.568 148.721 286.425 141.784 293.716 137.199L293.826 137.375C286.518 141.971 268.643 148.915 268.463 148.985Z" fill="#EF7D00"/>
<path id="Fill 311" fill-rule="evenodd" clip-rule="evenodd" d="M272.839 160.322L272.745 160.136C273.636 159.687 294.609 149.14 298.403 148.937L298.414 149.146C294.663 149.346 273.057 160.212 272.839 160.322Z" fill="#EF7D00"/>
<path id="Fill 313" fill-rule="evenodd" clip-rule="evenodd" d="M320.3 149.912L319.598 149.445C318.806 148.919 317.842 148.719 316.907 148.887L304.771 151.075C303.429 151.317 302.33 152.281 301.916 153.579C301.785 153.99 301.438 154.295 301.014 154.371L300.281 154.503C298.953 154.742 297.842 153.473 298.274 152.195C298.287 152.16 298.299 152.124 298.311 152.089C299.099 149.857 301.036 148.229 303.358 147.776L316.113 145.287C318.686 144.785 321.353 145.792 322.859 147.937C322.873 147.958 322.888 147.978 322.901 147.998C323.431 148.77 323.004 149.833 322.09 150.036L321.581 150.15C321.14 150.248 320.677 150.163 320.3 149.912ZM337.957 202.367C336.992 174.224 330.447 157.421 325.754 148.859C323.373 144.516 318.339 142.354 313.551 143.625L303.111 146.395C298.532 147.611 295.271 151.677 295.114 156.412C294.448 176.552 301.483 197.372 306.519 209.538C309.066 215.689 315.802 218.971 322.212 217.174L328.366 215.45C334.193 213.818 338.164 208.416 337.957 202.367Z" fill="#00305B"/>
<path id="Fill 315" fill-rule="evenodd" clip-rule="evenodd" d="M308.07 183.731C309.211 190.131 311.416 199.786 315.097 206.011C316.579 208.517 319.519 209.769 322.369 209.178L325.733 208.48C328.958 207.81 331.253 204.948 331.205 201.655C331.119 195.702 330.511 186.22 327.838 178.812C326.672 175.579 323.299 173.704 319.938 174.422L313.398 175.82C309.783 176.593 307.421 180.09 308.07 183.731Z" fill="#004A80"/>
<path id="Fill 317" fill-rule="evenodd" clip-rule="evenodd" d="M298.009 164.738L330.043 158.255C329.992 158.122 329.942 157.991 329.891 157.86L297.926 164.329C297.062 164.504 296.248 164.833 295.504 165.307L295.301 165.436C295.312 165.594 295.32 165.752 295.332 165.91L295.728 165.658C296.428 165.212 297.196 164.902 298.009 164.738Z" fill="#F26522"/>
<path id="Fill 319" fill-rule="evenodd" clip-rule="evenodd" d="M311.842 198.659L311.927 199.067L330.943 195.103L330.857 194.696L311.842 198.659Z" fill="#F26522"/>
<path id="Fill 321" fill-rule="evenodd" clip-rule="evenodd" d="M329.335 184.514L309.143 189.273L309.238 189.679L329.431 184.919L329.335 184.514Z" fill="#F26522"/>
<path id="Fill 323" fill-rule="evenodd" clip-rule="evenodd" d="M326.039 203.44C325.497 205.139 323.681 206.077 321.982 205.536C320.282 204.994 319.344 203.178 319.886 201.478C320.427 199.779 322.244 198.841 323.943 199.383C325.642 199.924 326.581 201.74 326.039 203.44Z" fill="#F26522"/>
<path id="Fill 325" fill-rule="evenodd" clip-rule="evenodd" d="M298.622 146.759C298.889 146.608 299.082 146.325 299.068 145.941C298.997 143.966 298.374 141.492 296.139 139.573C295.914 139.379 295.657 139.323 295.419 139.363C295.51 140.001 295.641 140.645 295.818 141.29C296.39 143.361 297.357 145.236 298.622 146.759Z" fill="#FFFEF2"/>
<path id="Fill 327" fill-rule="evenodd" clip-rule="evenodd" d="M299.068 145.941C299.082 146.325 298.889 146.607 298.622 146.759C299.192 147.446 299.823 148.062 300.504 148.591C300.611 148.675 300.72 148.755 300.829 148.834L301.145 146.403C299.617 144.986 298.998 143.966 299.068 145.941Z" fill="#FFFEF2"/>
<path id="Fill 329" fill-rule="evenodd" clip-rule="evenodd" d="M309.468 146.584L313.469 145.803L313.732 143.579L310.374 144.469L309.468 146.584Z" fill="#00305B"/>
</g>
</svg>
