<svg xmlns="http://www.w3.org/2000/svg" xmlns:xlink="http://www.w3.org/1999/xlink" id="Layer_1" data-name="Layer 1" viewBox="0 0 1440 348"><defs><clipPath id="clip-path"><rect width="1440" height="348" fill="none"/></clipPath></defs><path d="M120,196h0a14,14,0,0,1,14,14v24a14,14,0,0,1-14,14h0a14,14,0,0,1-14-14V210A14,14,0,0,1,120,196Z" fill="#c7dd9a" stroke="#7b8f4d" stroke-miterlimit="10" stroke-width="2"/><path d="M119.8,210.3h.2a.94.94,0,0,1,1,1v63a.94.94,0,0,1-1,1h-.2a.94.94,0,0,1-1-1v-63a1,1,0,0,1,1-1Z" fill="#65304e"/><path d="M112.9,228.9a.65.65,0,0,1,.9-.2l7.6,4.4a.58.58,0,0,1-.6,1l-7.6-4.4A.67.67,0,0,1,112.9,228.9Zm.6,22.1a.65.65,0,0,1,.9-.2l7.2,5.1a.64.64,0,0,1-.8,1l-7.2-5.1a.59.59,0,0,1-.1-.8Zm5.9-24.1a.63.63,0,0,1,.1-.9l6.9-5.4a.64.64,0,0,1,.8,1l-6.9,5.4A.74.74,0,0,1,119.4,226.9Zm.3,14.3a.75.75,0,0,1,0-.9l6.5-5.9a.64.64,0,0,1,.9.9l-6.5,5.9A.63.63,0,0,1,119.7,241.2Z" fill="#65304e"/><path d="M142,209.7h0a12,12,0,0,1,12,12v23a12,12,0,0,1-12,12h0a12,12,0,0,1-12-12v-23a12,12,0,0,1,12-12Z" fill="#97c53f" stroke="#4a7e34" stroke-miterlimit="10" stroke-width="1.76"/><path d="M141.8,223.8a1,1,0,0,1,1.1,1v48a.94.94,0,0,1-1,1h-.1a.94.94,0,0,1-1-1v-48a1.08,1.08,0,0,1,1-1Z" fill="#65304e"/><path d="M134,229.3a.65.65,0,0,1,.9-.2l7.6,4.4a.58.58,0,0,1-.6,1l-7.6-4.4a.63.63,0,0,1-.3-.8Zm.3,13.6a.65.65,0,0,1,.9-.2l7.1,5.1a.64.64,0,1,1-.8,1l-7.1-5.1A.59.59,0,0,1,134.3,242.9Zm7.4.3a.75.75,0,0,1,0-.9l6.5-5.9a.64.64,0,0,1,.9.9l-6.5,5.9A.75.75,0,0,1,141.7,243.2Z" fill="#65304e"/><path d="M123.3,278.6a9.25,9.25,0,0,0,.4-2.9,10.2,10.2,0,0,0-20.4,0,9.67,9.67,0,0,0,.4,2.9Z" fill="#e2bf2b" stroke="#b4962a" stroke-miterlimit="10" stroke-width="1.76"/><path d="M135.6,280a7.51,7.51,0,1,0-11.2-10,7.38,7.38,0,0,0,0,10Z" fill="#7eb942" stroke="#467c2c" stroke-miterlimit="10" stroke-width="1.76"/><path d="M156.9,280a7.57,7.57,0,0,0,.1-1.5,11.5,11.5,0,0,0-23,0,7.57,7.57,0,0,0,.1,1.5Z" fill="#6ac180" stroke="#007933" stroke-miterlimit="10" stroke-width="1.76"/><path d="M165.8,280a7.72,7.72,0,0,0,.2-1.5,5.5,5.5,0,0,0-11,0,7.72,7.72,0,0,0,.2,1.5Z" fill="#2bb355" stroke="#146e38" stroke-miterlimit="10" stroke-width="1.76"/><circle cx="288.5" cy="112.5" r="23.5" fill="#f4d13c" opacity="0.5" style="isolation:isolate"/><circle cx="288.5" cy="112.5" r="18.5" fill="#f4d13c"/><path d="M229.8,140v-.1a8.6,8.6,0,0,0,1.6.1,9.7,9.7,0,0,0,1.7-.1v.1h48.5a14.32,14.32,0,0,0-12.2-7,13.56,13.56,0,0,0-7.8,2.4A14.67,14.67,0,0,0,247.4,123a9.7,9.7,0,0,0-1.7.1A14.58,14.58,0,0,0,231.4,110c-8,0-14.4,6.7-14.4,15a4.1,4.1,0,0,0,.1,1.1,8.6,8.6,0,0,0-1.6-.1,14.73,14.73,0,0,0-14.4,14Z" fill="#edf7fa"/><circle cx="150.5" cy="191.5" r="1.5" fill="none" stroke="#dbd247" stroke-miterlimit="10" stroke-width="1.5" opacity="0.5" style="isolation:isolate"/><circle cx="104.3" cy="134.5" r="2.9" fill="none" stroke="#afd5f1" stroke-miterlimit="10" stroke-width="1.5"/><circle cx="72.2" cy="208.8" r="4.2" fill="none" stroke="#dde9af" stroke-miterlimit="10" stroke-width="5"/><circle cx="304.2" cy="177.8" r="3.2" fill="none" stroke="#dde9af" stroke-miterlimit="10" stroke-width="3"/><circle cx="138.2" cy="144" r="4.6" fill="none" stroke="#afd5f1" stroke-miterlimit="10" stroke-width="5"/><circle cx="310.5" cy="208.5" r="1.5" fill="none" stroke="#aedd88" stroke-miterlimit="10" stroke-width="1.5"/><circle cx="142.7" cy="111.7" r="1.6" fill="none" stroke="#afd5f1" stroke-miterlimit="10" stroke-width="1.5"/><path d="M166.3,268.8a1.94,1.94,0,0,0,.3-1.8c-.9-2.4-2.7-8.7.4-15l8.2-20.1a11,11,0,0,0,.8-4V227s-.4-2.1,4-4c4.9-2.1,14.7-4,20-4,10,0,29-1,37,2,0,0,15.8,4.6,25.9,13.9a29.81,29.81,0,0,0,4,3c3,1.8,7.7,4.4,12.1,5.1,0,0,11,2,13,7,0,0,5,7,4,12a4.06,4.06,0,0,1,1,3s0,6-4,6H167S164.5,271,166.3,268.8Z" fill="#f33330" stroke="#584840" stroke-miterlimit="10" stroke-width="0.35"/><path d="M291.7,262h3.6a1.92,1.92,0,0,1,1.8,1.4c.6,2.4.9,7.1-6.5,7.1v-7.2A1.11,1.11,0,0,1,291.7,262Z" fill="#8e9798" stroke="#676c6b" stroke-miterlimit="10" stroke-width="0.35"/><path d="M166.5,268h128a1.54,1.54,0,0,1,1.5,1.5h0a1.54,1.54,0,0,1-1.5,1.5h-128a1.54,1.54,0,0,1-1.5-1.5h0A1.54,1.54,0,0,1,166.5,268Z" fill="#58585c" stroke="#413e45" stroke-miterlimit="10" stroke-width="0.35"/><path d="M185.4,239.6l-.7-6.4a3.61,3.61,0,0,1,1-2.8l2.8-2.8a9,9,0,0,1,5-2.6c6.7-1.2,22.5-3.8,24.1-1.4,2,3,2,15,2,15a2,2,0,0,1-2,2H186.5A1.28,1.28,0,0,1,185.4,239.6Z" fill="#b2e3f8" stroke="#584840" stroke-miterlimit="10" stroke-width="0.35"/><path d="M268.4,238.8l-1.5,1.5a3.55,3.55,0,0,1-2.8,1.1H260" fill="none" stroke="#584840" stroke-miterlimit="10" stroke-width="0.35"/><path d="M222.5,225.7a3.12,3.12,0,0,1,3.1-3.1h.2c5.4.4,16.4,1.8,23.7,6.9,0,0,13,8,13,10,0,0,1,2-2,2l-35-1s-3,0-3-4V225.7Z" fill="#b2e3f8" stroke="#584840" stroke-miterlimit="10" stroke-width="0.35"/><path d="M265.2,247h2.7a.94.94,0,0,1,1,1h0a.94.94,0,0,1-1,1h-2.7a.94.94,0,0,1-1-1h0A.94.94,0,0,1,265.2,247Z" fill="#ffc818" stroke="#584840" stroke-miterlimit="10" stroke-width="0.35"/><path d="M265.2,247h.7a.94.94,0,0,1,1,1h0a.94.94,0,0,1-1,1h-.7a.94.94,0,0,1-1-1h0A.94.94,0,0,1,265.2,247Z" fill="#58585c" stroke="#584840" stroke-miterlimit="10" stroke-width="0.35"/><path d="M294.4,254.2A28.63,28.63,0,0,0,292,250c-.9-2.1-3.3-3.7-5.9-4.8-1.7.7-3.3,2-1.6,4.3C284.5,249.5,288.9,257.5,294.4,254.2Zm-121.9-2.7c2.2-2.2.6-8.8-.4-12.1L167,252a8.65,8.65,0,0,0-.7,1.7C170.9,253.9,172.5,251.5,172.5,251.5Z" fill="#b2e3f8" stroke="#584840" stroke-miterlimit="10" stroke-width="0.35"/><path d="M258,235.1a16.15,16.15,0,0,1-1.5,6.2l4.1.1c3,0,2-2,2-2C262.5,238.7,260.4,237,258,235.1Z" fill="#58585c" stroke="#413e45" stroke-miterlimit="10" stroke-width="0.35"/><path d="M192.5,265.5h76V268h-76Z" fill="#8e9798" stroke="#676c6b" stroke-miterlimit="10" stroke-width="0.35"/><path d="M254.5,243h-1.9a1.58,1.58,0,0,1-1.6-1.6h0v-3.8a1.58,1.58,0,0,1,1.6-1.6h1.9a3.54,3.54,0,0,1,3.5,3.5h0a3.54,3.54,0,0,1-3.5,3.5Z" fill="#969899" stroke="#584840" stroke-miterlimit="10" stroke-width="0.35"/><circle cx="184" cy="270" r="12" fill="#414243"/><circle cx="184" cy="270" r="6" fill="#c6c2c2"/><circle cx="277" cy="270" r="12" fill="#414243"/><circle cx="277" cy="270" r="6" fill="#c6c2c2"/><g clip-path="url(#clip-path)"><path d="M1475.6,277.6H923l-497.8,5.5H-17.7" fill="none" stroke="#7ddedc" stroke-linecap="round" stroke-linejoin="round" stroke-width="10.52"/><path d="M1475.6,278.1H923L425.1,283l-442.7-.7" fill="none" stroke="#fff" stroke-linecap="round" stroke-linejoin="round" stroke-width="8.77"/><path d="M1475.6,277.6H923l-497.8,5.5H-17.7" fill="none" stroke="#9298a1" stroke-linecap="round" stroke-linejoin="round" stroke-width="7.01"/></g></svg>